M48
; DRILL file {KiCad 7.0.6} date Tue Apr 30 22:58:01 2024
; FORMAT={-:-/ absolute / inch / decimal}
; #@! TF.CreationDate,2024-04-30T22:58:01+02:00
; #@! TF.GenerationSoftware,Kicad,Pcbnew,7.0.6
; #@! TF.FileFunction,MixedPlating,1,2
FMAT,2
INCH
; #@! TA.AperFunction,Plated,PTH,ViaDrill
T1C0.0157
; #@! TA.AperFunction,Plated,PTH,ComponentDrill
T2C0.0394
; #@! TA.AperFunction,Plated,PTH,ComponentDrill
T3C0.0866
%
G90
G05
T1
X5.9252Y-2.7835
X5.9252Y-3.3386
X6.0134Y-3.6213
X6.0205Y-3.8965
X6.0236Y-3.6772
X6.0661Y-3.5598
X6.115Y-3.9449
X6.1965Y-3.928
X6.287Y-3.6547
X6.298Y-3.8154
X6.3157Y-3.9114
X6.4646Y-2.8661
X6.4646Y-3.0197
X6.4646Y-3.0984
X6.4646Y-3.2559
X6.4685Y-2.7874
X6.4689Y-3.7634
X6.5157Y-3.4882
X6.5189Y-4.0213
X6.526Y-3.4157
T2
X5.9094Y-3.6819
X5.9094Y-3.7819
X5.9094Y-3.8819
X5.9094Y-3.9819
X5.9094Y-4.0819
X5.9094Y-4.1819
X6.0531Y-4.1819
T3
X6.2283Y-4.1614
X6.4449Y-4.1614
T0
M30
