%TF.GenerationSoftware,KiCad,Pcbnew,7.0.6*%
%TF.CreationDate,2024-04-30T22:58:02+02:00*%
%TF.ProjectId,nboard,6e626f61-7264-42e6-9b69-6361645f7063,rev?*%
%TF.SameCoordinates,Original*%
%TF.FileFunction,Drillmap*%
%TF.FilePolarity,Positive*%
%FSLAX45Y45*%
G04 Gerber Fmt 4.5, Leading zero omitted, Abs format (unit mm)*
G04 Created by KiCad (PCBNEW 7.0.6) date 2024-04-30 22:58:02*
%MOMM*%
%LPD*%
G01*
G04 APERTURE LIST*
%ADD10C,0.100000*%
%ADD11C,0.200000*%
%ADD12C,0.040000*%
%ADD13C,0.220000*%
G04 APERTURE END LIST*
D10*
X14823000Y-6997500D02*
X16655000Y-6997500D01*
X16655000Y-10808500D01*
X14823000Y-10808500D01*
X14823000Y-6997500D01*
D11*
D12*
X15030000Y-7050000D02*
X15070000Y-7090000D01*
X15070000Y-7050000D02*
X15030000Y-7090000D01*
X15030000Y-8460000D02*
X15070000Y-8500000D01*
X15070000Y-8460000D02*
X15030000Y-8500000D01*
X15254000Y-9178000D02*
X15294000Y-9218000D01*
X15294000Y-9178000D02*
X15254000Y-9218000D01*
X15272000Y-9877000D02*
X15312000Y-9917000D01*
X15312000Y-9877000D02*
X15272000Y-9917000D01*
X15280000Y-9320000D02*
X15320000Y-9360000D01*
X15320000Y-9320000D02*
X15280000Y-9360000D01*
X15388000Y-9022000D02*
X15428000Y-9062000D01*
X15428000Y-9022000D02*
X15388000Y-9062000D01*
X15512000Y-10000000D02*
X15552000Y-10040000D01*
X15552000Y-10000000D02*
X15512000Y-10040000D01*
X15719000Y-9957000D02*
X15759000Y-9997000D01*
X15759000Y-9957000D02*
X15719000Y-9997000D01*
X15949000Y-9263000D02*
X15989000Y-9303000D01*
X15989000Y-9263000D02*
X15949000Y-9303000D01*
X15977000Y-9671000D02*
X16017000Y-9711000D01*
X16017000Y-9671000D02*
X15977000Y-9711000D01*
X16022000Y-9915000D02*
X16062000Y-9955000D01*
X16062000Y-9915000D02*
X16022000Y-9955000D01*
X16400000Y-7260000D02*
X16440000Y-7300000D01*
X16440000Y-7260000D02*
X16400000Y-7300000D01*
X16400000Y-7650000D02*
X16440000Y-7690000D01*
X16440000Y-7650000D02*
X16400000Y-7690000D01*
X16400000Y-7850000D02*
X16440000Y-7890000D01*
X16440000Y-7850000D02*
X16400000Y-7890000D01*
X16400000Y-8250000D02*
X16440000Y-8290000D01*
X16440000Y-8250000D02*
X16400000Y-8290000D01*
X16410000Y-7060000D02*
X16450000Y-7100000D01*
X16450000Y-7060000D02*
X16410000Y-7100000D01*
X16411000Y-9539000D02*
X16451000Y-9579000D01*
X16451000Y-9539000D02*
X16411000Y-9579000D01*
X16530000Y-8840000D02*
X16570000Y-8880000D01*
X16570000Y-8840000D02*
X16530000Y-8880000D01*
X16538000Y-10194000D02*
X16578000Y-10234000D01*
X16578000Y-10194000D02*
X16538000Y-10234000D01*
X16556000Y-8656000D02*
X16596000Y-8696000D01*
X16596000Y-8656000D02*
X16556000Y-8696000D01*
D10*
X15060000Y-9352000D02*
G75*
G03*
X15060000Y-9352000I-50000J0D01*
G01*
X15060000Y-9606000D02*
G75*
G03*
X15060000Y-9606000I-50000J0D01*
G01*
X15060000Y-9860000D02*
G75*
G03*
X15060000Y-9860000I-50000J0D01*
G01*
X15060000Y-10114000D02*
G75*
G03*
X15060000Y-10114000I-50000J0D01*
G01*
X15060000Y-10368000D02*
G75*
G03*
X15060000Y-10368000I-50000J0D01*
G01*
X15060000Y-10622000D02*
G75*
G03*
X15060000Y-10622000I-50000J0D01*
G01*
X15425000Y-10622000D02*
G75*
G03*
X15425000Y-10622000I-50000J0D01*
G01*
D13*
X15820000Y-10460000D02*
X15820000Y-10680000D01*
X15710000Y-10570000D02*
X15930000Y-10570000D01*
X16370000Y-10460000D02*
X16370000Y-10680000D01*
X16260000Y-10570000D02*
X16480000Y-10570000D01*
D11*
X15078777Y-11124984D02*
X15078777Y-10924984D01*
X15078777Y-10924984D02*
X15126396Y-10924984D01*
X15126396Y-10924984D02*
X15154967Y-10934508D01*
X15154967Y-10934508D02*
X15174015Y-10953555D01*
X15174015Y-10953555D02*
X15183539Y-10972603D01*
X15183539Y-10972603D02*
X15193062Y-11010698D01*
X15193062Y-11010698D02*
X15193062Y-11039270D01*
X15193062Y-11039270D02*
X15183539Y-11077365D01*
X15183539Y-11077365D02*
X15174015Y-11096412D01*
X15174015Y-11096412D02*
X15154967Y-11115460D01*
X15154967Y-11115460D02*
X15126396Y-11124984D01*
X15126396Y-11124984D02*
X15078777Y-11124984D01*
X15278777Y-11124984D02*
X15278777Y-10991650D01*
X15278777Y-11029746D02*
X15288301Y-11010698D01*
X15288301Y-11010698D02*
X15297824Y-11001174D01*
X15297824Y-11001174D02*
X15316872Y-10991650D01*
X15316872Y-10991650D02*
X15335920Y-10991650D01*
X15402586Y-11124984D02*
X15402586Y-10991650D01*
X15402586Y-10924984D02*
X15393062Y-10934508D01*
X15393062Y-10934508D02*
X15402586Y-10944031D01*
X15402586Y-10944031D02*
X15412110Y-10934508D01*
X15412110Y-10934508D02*
X15402586Y-10924984D01*
X15402586Y-10924984D02*
X15402586Y-10944031D01*
X15526396Y-11124984D02*
X15507348Y-11115460D01*
X15507348Y-11115460D02*
X15497824Y-11096412D01*
X15497824Y-11096412D02*
X15497824Y-10924984D01*
X15631158Y-11124984D02*
X15612110Y-11115460D01*
X15612110Y-11115460D02*
X15602586Y-11096412D01*
X15602586Y-11096412D02*
X15602586Y-10924984D01*
X15859729Y-11124984D02*
X15859729Y-10924984D01*
X15859729Y-10924984D02*
X15926396Y-11067841D01*
X15926396Y-11067841D02*
X15993062Y-10924984D01*
X15993062Y-10924984D02*
X15993062Y-11124984D01*
X16174015Y-11124984D02*
X16174015Y-11020222D01*
X16174015Y-11020222D02*
X16164491Y-11001174D01*
X16164491Y-11001174D02*
X16145443Y-10991650D01*
X16145443Y-10991650D02*
X16107348Y-10991650D01*
X16107348Y-10991650D02*
X16088301Y-11001174D01*
X16174015Y-11115460D02*
X16154967Y-11124984D01*
X16154967Y-11124984D02*
X16107348Y-11124984D01*
X16107348Y-11124984D02*
X16088301Y-11115460D01*
X16088301Y-11115460D02*
X16078777Y-11096412D01*
X16078777Y-11096412D02*
X16078777Y-11077365D01*
X16078777Y-11077365D02*
X16088301Y-11058317D01*
X16088301Y-11058317D02*
X16107348Y-11048793D01*
X16107348Y-11048793D02*
X16154967Y-11048793D01*
X16154967Y-11048793D02*
X16174015Y-11039270D01*
X16269253Y-10991650D02*
X16269253Y-11191650D01*
X16269253Y-11001174D02*
X16288301Y-10991650D01*
X16288301Y-10991650D02*
X16326396Y-10991650D01*
X16326396Y-10991650D02*
X16345443Y-11001174D01*
X16345443Y-11001174D02*
X16354967Y-11010698D01*
X16354967Y-11010698D02*
X16364491Y-11029746D01*
X16364491Y-11029746D02*
X16364491Y-11086889D01*
X16364491Y-11086889D02*
X16354967Y-11105936D01*
X16354967Y-11105936D02*
X16345443Y-11115460D01*
X16345443Y-11115460D02*
X16326396Y-11124984D01*
X16326396Y-11124984D02*
X16288301Y-11124984D01*
X16288301Y-11124984D02*
X16269253Y-11115460D01*
X16450205Y-11105936D02*
X16459729Y-11115460D01*
X16459729Y-11115460D02*
X16450205Y-11124984D01*
X16450205Y-11124984D02*
X16440682Y-11115460D01*
X16440682Y-11115460D02*
X16450205Y-11105936D01*
X16450205Y-11105936D02*
X16450205Y-11124984D01*
X16450205Y-11001174D02*
X16459729Y-11010698D01*
X16459729Y-11010698D02*
X16450205Y-11020222D01*
X16450205Y-11020222D02*
X16440682Y-11010698D01*
X16440682Y-11010698D02*
X16450205Y-11001174D01*
X16450205Y-11001174D02*
X16450205Y-11020222D01*
D12*
X14778000Y-11433500D02*
X14818000Y-11473500D01*
X14818000Y-11433500D02*
X14778000Y-11473500D01*
D11*
X15116872Y-11344984D02*
X15135920Y-11344984D01*
X15135920Y-11344984D02*
X15154967Y-11354508D01*
X15154967Y-11354508D02*
X15164491Y-11364031D01*
X15164491Y-11364031D02*
X15174015Y-11383079D01*
X15174015Y-11383079D02*
X15183539Y-11421174D01*
X15183539Y-11421174D02*
X15183539Y-11468793D01*
X15183539Y-11468793D02*
X15174015Y-11506888D01*
X15174015Y-11506888D02*
X15164491Y-11525936D01*
X15164491Y-11525936D02*
X15154967Y-11535460D01*
X15154967Y-11535460D02*
X15135920Y-11544984D01*
X15135920Y-11544984D02*
X15116872Y-11544984D01*
X15116872Y-11544984D02*
X15097824Y-11535460D01*
X15097824Y-11535460D02*
X15088301Y-11525936D01*
X15088301Y-11525936D02*
X15078777Y-11506888D01*
X15078777Y-11506888D02*
X15069253Y-11468793D01*
X15069253Y-11468793D02*
X15069253Y-11421174D01*
X15069253Y-11421174D02*
X15078777Y-11383079D01*
X15078777Y-11383079D02*
X15088301Y-11364031D01*
X15088301Y-11364031D02*
X15097824Y-11354508D01*
X15097824Y-11354508D02*
X15116872Y-11344984D01*
X15269253Y-11525936D02*
X15278777Y-11535460D01*
X15278777Y-11535460D02*
X15269253Y-11544984D01*
X15269253Y-11544984D02*
X15259729Y-11535460D01*
X15259729Y-11535460D02*
X15269253Y-11525936D01*
X15269253Y-11525936D02*
X15269253Y-11544984D01*
X15450205Y-11411650D02*
X15450205Y-11544984D01*
X15402586Y-11335460D02*
X15354967Y-11478317D01*
X15354967Y-11478317D02*
X15478777Y-11478317D01*
X15593062Y-11344984D02*
X15612110Y-11344984D01*
X15612110Y-11344984D02*
X15631158Y-11354508D01*
X15631158Y-11354508D02*
X15640682Y-11364031D01*
X15640682Y-11364031D02*
X15650205Y-11383079D01*
X15650205Y-11383079D02*
X15659729Y-11421174D01*
X15659729Y-11421174D02*
X15659729Y-11468793D01*
X15659729Y-11468793D02*
X15650205Y-11506888D01*
X15650205Y-11506888D02*
X15640682Y-11525936D01*
X15640682Y-11525936D02*
X15631158Y-11535460D01*
X15631158Y-11535460D02*
X15612110Y-11544984D01*
X15612110Y-11544984D02*
X15593062Y-11544984D01*
X15593062Y-11544984D02*
X15574015Y-11535460D01*
X15574015Y-11535460D02*
X15564491Y-11525936D01*
X15564491Y-11525936D02*
X15554967Y-11506888D01*
X15554967Y-11506888D02*
X15545443Y-11468793D01*
X15545443Y-11468793D02*
X15545443Y-11421174D01*
X15545443Y-11421174D02*
X15554967Y-11383079D01*
X15554967Y-11383079D02*
X15564491Y-11364031D01*
X15564491Y-11364031D02*
X15574015Y-11354508D01*
X15574015Y-11354508D02*
X15593062Y-11344984D01*
X15783539Y-11344984D02*
X15802586Y-11344984D01*
X15802586Y-11344984D02*
X15821634Y-11354508D01*
X15821634Y-11354508D02*
X15831158Y-11364031D01*
X15831158Y-11364031D02*
X15840682Y-11383079D01*
X15840682Y-11383079D02*
X15850205Y-11421174D01*
X15850205Y-11421174D02*
X15850205Y-11468793D01*
X15850205Y-11468793D02*
X15840682Y-11506888D01*
X15840682Y-11506888D02*
X15831158Y-11525936D01*
X15831158Y-11525936D02*
X15821634Y-11535460D01*
X15821634Y-11535460D02*
X15802586Y-11544984D01*
X15802586Y-11544984D02*
X15783539Y-11544984D01*
X15783539Y-11544984D02*
X15764491Y-11535460D01*
X15764491Y-11535460D02*
X15754967Y-11525936D01*
X15754967Y-11525936D02*
X15745443Y-11506888D01*
X15745443Y-11506888D02*
X15735920Y-11468793D01*
X15735920Y-11468793D02*
X15735920Y-11421174D01*
X15735920Y-11421174D02*
X15745443Y-11383079D01*
X15745443Y-11383079D02*
X15754967Y-11364031D01*
X15754967Y-11364031D02*
X15764491Y-11354508D01*
X15764491Y-11354508D02*
X15783539Y-11344984D01*
X15935920Y-11544984D02*
X15935920Y-11411650D01*
X15935920Y-11430698D02*
X15945443Y-11421174D01*
X15945443Y-11421174D02*
X15964491Y-11411650D01*
X15964491Y-11411650D02*
X15993063Y-11411650D01*
X15993063Y-11411650D02*
X16012110Y-11421174D01*
X16012110Y-11421174D02*
X16021634Y-11440222D01*
X16021634Y-11440222D02*
X16021634Y-11544984D01*
X16021634Y-11440222D02*
X16031158Y-11421174D01*
X16031158Y-11421174D02*
X16050205Y-11411650D01*
X16050205Y-11411650D02*
X16078777Y-11411650D01*
X16078777Y-11411650D02*
X16097824Y-11421174D01*
X16097824Y-11421174D02*
X16107348Y-11440222D01*
X16107348Y-11440222D02*
X16107348Y-11544984D01*
X16202586Y-11544984D02*
X16202586Y-11411650D01*
X16202586Y-11430698D02*
X16212110Y-11421174D01*
X16212110Y-11421174D02*
X16231158Y-11411650D01*
X16231158Y-11411650D02*
X16259729Y-11411650D01*
X16259729Y-11411650D02*
X16278777Y-11421174D01*
X16278777Y-11421174D02*
X16288301Y-11440222D01*
X16288301Y-11440222D02*
X16288301Y-11544984D01*
X16288301Y-11440222D02*
X16297824Y-11421174D01*
X16297824Y-11421174D02*
X16316872Y-11411650D01*
X16316872Y-11411650D02*
X16345443Y-11411650D01*
X16345443Y-11411650D02*
X16364491Y-11421174D01*
X16364491Y-11421174D02*
X16374015Y-11440222D01*
X16374015Y-11440222D02*
X16374015Y-11544984D01*
X16764491Y-11335460D02*
X16593063Y-11592603D01*
X17021634Y-11344984D02*
X17040682Y-11344984D01*
X17040682Y-11344984D02*
X17059729Y-11354508D01*
X17059729Y-11354508D02*
X17069253Y-11364031D01*
X17069253Y-11364031D02*
X17078777Y-11383079D01*
X17078777Y-11383079D02*
X17088301Y-11421174D01*
X17088301Y-11421174D02*
X17088301Y-11468793D01*
X17088301Y-11468793D02*
X17078777Y-11506888D01*
X17078777Y-11506888D02*
X17069253Y-11525936D01*
X17069253Y-11525936D02*
X17059729Y-11535460D01*
X17059729Y-11535460D02*
X17040682Y-11544984D01*
X17040682Y-11544984D02*
X17021634Y-11544984D01*
X17021634Y-11544984D02*
X17002587Y-11535460D01*
X17002587Y-11535460D02*
X16993063Y-11525936D01*
X16993063Y-11525936D02*
X16983539Y-11506888D01*
X16983539Y-11506888D02*
X16974015Y-11468793D01*
X16974015Y-11468793D02*
X16974015Y-11421174D01*
X16974015Y-11421174D02*
X16983539Y-11383079D01*
X16983539Y-11383079D02*
X16993063Y-11364031D01*
X16993063Y-11364031D02*
X17002587Y-11354508D01*
X17002587Y-11354508D02*
X17021634Y-11344984D01*
X17174015Y-11525936D02*
X17183539Y-11535460D01*
X17183539Y-11535460D02*
X17174015Y-11544984D01*
X17174015Y-11544984D02*
X17164491Y-11535460D01*
X17164491Y-11535460D02*
X17174015Y-11525936D01*
X17174015Y-11525936D02*
X17174015Y-11544984D01*
X17307348Y-11344984D02*
X17326396Y-11344984D01*
X17326396Y-11344984D02*
X17345444Y-11354508D01*
X17345444Y-11354508D02*
X17354968Y-11364031D01*
X17354968Y-11364031D02*
X17364491Y-11383079D01*
X17364491Y-11383079D02*
X17374015Y-11421174D01*
X17374015Y-11421174D02*
X17374015Y-11468793D01*
X17374015Y-11468793D02*
X17364491Y-11506888D01*
X17364491Y-11506888D02*
X17354968Y-11525936D01*
X17354968Y-11525936D02*
X17345444Y-11535460D01*
X17345444Y-11535460D02*
X17326396Y-11544984D01*
X17326396Y-11544984D02*
X17307348Y-11544984D01*
X17307348Y-11544984D02*
X17288301Y-11535460D01*
X17288301Y-11535460D02*
X17278777Y-11525936D01*
X17278777Y-11525936D02*
X17269253Y-11506888D01*
X17269253Y-11506888D02*
X17259729Y-11468793D01*
X17259729Y-11468793D02*
X17259729Y-11421174D01*
X17259729Y-11421174D02*
X17269253Y-11383079D01*
X17269253Y-11383079D02*
X17278777Y-11364031D01*
X17278777Y-11364031D02*
X17288301Y-11354508D01*
X17288301Y-11354508D02*
X17307348Y-11344984D01*
X17564491Y-11544984D02*
X17450206Y-11544984D01*
X17507348Y-11544984D02*
X17507348Y-11344984D01*
X17507348Y-11344984D02*
X17488301Y-11373555D01*
X17488301Y-11373555D02*
X17469253Y-11392603D01*
X17469253Y-11392603D02*
X17450206Y-11402127D01*
X17745444Y-11344984D02*
X17650206Y-11344984D01*
X17650206Y-11344984D02*
X17640682Y-11440222D01*
X17640682Y-11440222D02*
X17650206Y-11430698D01*
X17650206Y-11430698D02*
X17669253Y-11421174D01*
X17669253Y-11421174D02*
X17716872Y-11421174D01*
X17716872Y-11421174D02*
X17735920Y-11430698D01*
X17735920Y-11430698D02*
X17745444Y-11440222D01*
X17745444Y-11440222D02*
X17754968Y-11459269D01*
X17754968Y-11459269D02*
X17754968Y-11506888D01*
X17754968Y-11506888D02*
X17745444Y-11525936D01*
X17745444Y-11525936D02*
X17735920Y-11535460D01*
X17735920Y-11535460D02*
X17716872Y-11544984D01*
X17716872Y-11544984D02*
X17669253Y-11544984D01*
X17669253Y-11544984D02*
X17650206Y-11535460D01*
X17650206Y-11535460D02*
X17640682Y-11525936D01*
X17821634Y-11344984D02*
X17954968Y-11344984D01*
X17954968Y-11344984D02*
X17869253Y-11544984D01*
X18021634Y-11344984D02*
X18021634Y-11383079D01*
X18097825Y-11344984D02*
X18097825Y-11383079D01*
X18393063Y-11621174D02*
X18383539Y-11611650D01*
X18383539Y-11611650D02*
X18364491Y-11583079D01*
X18364491Y-11583079D02*
X18354968Y-11564031D01*
X18354968Y-11564031D02*
X18345444Y-11535460D01*
X18345444Y-11535460D02*
X18335920Y-11487841D01*
X18335920Y-11487841D02*
X18335920Y-11449746D01*
X18335920Y-11449746D02*
X18345444Y-11402127D01*
X18345444Y-11402127D02*
X18354968Y-11373555D01*
X18354968Y-11373555D02*
X18364491Y-11354508D01*
X18364491Y-11354508D02*
X18383539Y-11325936D01*
X18383539Y-11325936D02*
X18393063Y-11316412D01*
X18459730Y-11364031D02*
X18469253Y-11354508D01*
X18469253Y-11354508D02*
X18488301Y-11344984D01*
X18488301Y-11344984D02*
X18535920Y-11344984D01*
X18535920Y-11344984D02*
X18554968Y-11354508D01*
X18554968Y-11354508D02*
X18564491Y-11364031D01*
X18564491Y-11364031D02*
X18574015Y-11383079D01*
X18574015Y-11383079D02*
X18574015Y-11402127D01*
X18574015Y-11402127D02*
X18564491Y-11430698D01*
X18564491Y-11430698D02*
X18450206Y-11544984D01*
X18450206Y-11544984D02*
X18574015Y-11544984D01*
X18697825Y-11344984D02*
X18716872Y-11344984D01*
X18716872Y-11344984D02*
X18735920Y-11354508D01*
X18735920Y-11354508D02*
X18745444Y-11364031D01*
X18745444Y-11364031D02*
X18754968Y-11383079D01*
X18754968Y-11383079D02*
X18764491Y-11421174D01*
X18764491Y-11421174D02*
X18764491Y-11468793D01*
X18764491Y-11468793D02*
X18754968Y-11506888D01*
X18754968Y-11506888D02*
X18745444Y-11525936D01*
X18745444Y-11525936D02*
X18735920Y-11535460D01*
X18735920Y-11535460D02*
X18716872Y-11544984D01*
X18716872Y-11544984D02*
X18697825Y-11544984D01*
X18697825Y-11544984D02*
X18678777Y-11535460D01*
X18678777Y-11535460D02*
X18669253Y-11525936D01*
X18669253Y-11525936D02*
X18659730Y-11506888D01*
X18659730Y-11506888D02*
X18650206Y-11468793D01*
X18650206Y-11468793D02*
X18650206Y-11421174D01*
X18650206Y-11421174D02*
X18659730Y-11383079D01*
X18659730Y-11383079D02*
X18669253Y-11364031D01*
X18669253Y-11364031D02*
X18678777Y-11354508D01*
X18678777Y-11354508D02*
X18697825Y-11344984D01*
X19002587Y-11544984D02*
X19002587Y-11344984D01*
X19088301Y-11544984D02*
X19088301Y-11440222D01*
X19088301Y-11440222D02*
X19078777Y-11421174D01*
X19078777Y-11421174D02*
X19059730Y-11411650D01*
X19059730Y-11411650D02*
X19031158Y-11411650D01*
X19031158Y-11411650D02*
X19012111Y-11421174D01*
X19012111Y-11421174D02*
X19002587Y-11430698D01*
X19212111Y-11544984D02*
X19193063Y-11535460D01*
X19193063Y-11535460D02*
X19183539Y-11525936D01*
X19183539Y-11525936D02*
X19174015Y-11506888D01*
X19174015Y-11506888D02*
X19174015Y-11449746D01*
X19174015Y-11449746D02*
X19183539Y-11430698D01*
X19183539Y-11430698D02*
X19193063Y-11421174D01*
X19193063Y-11421174D02*
X19212111Y-11411650D01*
X19212111Y-11411650D02*
X19240682Y-11411650D01*
X19240682Y-11411650D02*
X19259730Y-11421174D01*
X19259730Y-11421174D02*
X19269253Y-11430698D01*
X19269253Y-11430698D02*
X19278777Y-11449746D01*
X19278777Y-11449746D02*
X19278777Y-11506888D01*
X19278777Y-11506888D02*
X19269253Y-11525936D01*
X19269253Y-11525936D02*
X19259730Y-11535460D01*
X19259730Y-11535460D02*
X19240682Y-11544984D01*
X19240682Y-11544984D02*
X19212111Y-11544984D01*
X19393063Y-11544984D02*
X19374015Y-11535460D01*
X19374015Y-11535460D02*
X19364492Y-11516412D01*
X19364492Y-11516412D02*
X19364492Y-11344984D01*
X19545444Y-11535460D02*
X19526396Y-11544984D01*
X19526396Y-11544984D02*
X19488301Y-11544984D01*
X19488301Y-11544984D02*
X19469253Y-11535460D01*
X19469253Y-11535460D02*
X19459730Y-11516412D01*
X19459730Y-11516412D02*
X19459730Y-11440222D01*
X19459730Y-11440222D02*
X19469253Y-11421174D01*
X19469253Y-11421174D02*
X19488301Y-11411650D01*
X19488301Y-11411650D02*
X19526396Y-11411650D01*
X19526396Y-11411650D02*
X19545444Y-11421174D01*
X19545444Y-11421174D02*
X19554968Y-11440222D01*
X19554968Y-11440222D02*
X19554968Y-11459269D01*
X19554968Y-11459269D02*
X19459730Y-11478317D01*
X19631158Y-11535460D02*
X19650206Y-11544984D01*
X19650206Y-11544984D02*
X19688301Y-11544984D01*
X19688301Y-11544984D02*
X19707349Y-11535460D01*
X19707349Y-11535460D02*
X19716873Y-11516412D01*
X19716873Y-11516412D02*
X19716873Y-11506888D01*
X19716873Y-11506888D02*
X19707349Y-11487841D01*
X19707349Y-11487841D02*
X19688301Y-11478317D01*
X19688301Y-11478317D02*
X19659730Y-11478317D01*
X19659730Y-11478317D02*
X19640682Y-11468793D01*
X19640682Y-11468793D02*
X19631158Y-11449746D01*
X19631158Y-11449746D02*
X19631158Y-11440222D01*
X19631158Y-11440222D02*
X19640682Y-11421174D01*
X19640682Y-11421174D02*
X19659730Y-11411650D01*
X19659730Y-11411650D02*
X19688301Y-11411650D01*
X19688301Y-11411650D02*
X19707349Y-11421174D01*
X19783539Y-11621174D02*
X19793063Y-11611650D01*
X19793063Y-11611650D02*
X19812111Y-11583079D01*
X19812111Y-11583079D02*
X19821634Y-11564031D01*
X19821634Y-11564031D02*
X19831158Y-11535460D01*
X19831158Y-11535460D02*
X19840682Y-11487841D01*
X19840682Y-11487841D02*
X19840682Y-11449746D01*
X19840682Y-11449746D02*
X19831158Y-11402127D01*
X19831158Y-11402127D02*
X19821634Y-11373555D01*
X19821634Y-11373555D02*
X19812111Y-11354508D01*
X19812111Y-11354508D02*
X19793063Y-11325936D01*
X19793063Y-11325936D02*
X19783539Y-11316412D01*
D10*
X14818000Y-11717500D02*
G75*
G03*
X14818000Y-11717500I-50000J0D01*
G01*
D11*
X15183539Y-11808984D02*
X15069253Y-11808984D01*
X15126396Y-11808984D02*
X15126396Y-11608984D01*
X15126396Y-11608984D02*
X15107348Y-11637555D01*
X15107348Y-11637555D02*
X15088301Y-11656603D01*
X15088301Y-11656603D02*
X15069253Y-11666127D01*
X15269253Y-11789936D02*
X15278777Y-11799460D01*
X15278777Y-11799460D02*
X15269253Y-11808984D01*
X15269253Y-11808984D02*
X15259729Y-11799460D01*
X15259729Y-11799460D02*
X15269253Y-11789936D01*
X15269253Y-11789936D02*
X15269253Y-11808984D01*
X15402586Y-11608984D02*
X15421634Y-11608984D01*
X15421634Y-11608984D02*
X15440682Y-11618508D01*
X15440682Y-11618508D02*
X15450205Y-11628031D01*
X15450205Y-11628031D02*
X15459729Y-11647079D01*
X15459729Y-11647079D02*
X15469253Y-11685174D01*
X15469253Y-11685174D02*
X15469253Y-11732793D01*
X15469253Y-11732793D02*
X15459729Y-11770888D01*
X15459729Y-11770888D02*
X15450205Y-11789936D01*
X15450205Y-11789936D02*
X15440682Y-11799460D01*
X15440682Y-11799460D02*
X15421634Y-11808984D01*
X15421634Y-11808984D02*
X15402586Y-11808984D01*
X15402586Y-11808984D02*
X15383539Y-11799460D01*
X15383539Y-11799460D02*
X15374015Y-11789936D01*
X15374015Y-11789936D02*
X15364491Y-11770888D01*
X15364491Y-11770888D02*
X15354967Y-11732793D01*
X15354967Y-11732793D02*
X15354967Y-11685174D01*
X15354967Y-11685174D02*
X15364491Y-11647079D01*
X15364491Y-11647079D02*
X15374015Y-11628031D01*
X15374015Y-11628031D02*
X15383539Y-11618508D01*
X15383539Y-11618508D02*
X15402586Y-11608984D01*
X15593062Y-11608984D02*
X15612110Y-11608984D01*
X15612110Y-11608984D02*
X15631158Y-11618508D01*
X15631158Y-11618508D02*
X15640682Y-11628031D01*
X15640682Y-11628031D02*
X15650205Y-11647079D01*
X15650205Y-11647079D02*
X15659729Y-11685174D01*
X15659729Y-11685174D02*
X15659729Y-11732793D01*
X15659729Y-11732793D02*
X15650205Y-11770888D01*
X15650205Y-11770888D02*
X15640682Y-11789936D01*
X15640682Y-11789936D02*
X15631158Y-11799460D01*
X15631158Y-11799460D02*
X15612110Y-11808984D01*
X15612110Y-11808984D02*
X15593062Y-11808984D01*
X15593062Y-11808984D02*
X15574015Y-11799460D01*
X15574015Y-11799460D02*
X15564491Y-11789936D01*
X15564491Y-11789936D02*
X15554967Y-11770888D01*
X15554967Y-11770888D02*
X15545443Y-11732793D01*
X15545443Y-11732793D02*
X15545443Y-11685174D01*
X15545443Y-11685174D02*
X15554967Y-11647079D01*
X15554967Y-11647079D02*
X15564491Y-11628031D01*
X15564491Y-11628031D02*
X15574015Y-11618508D01*
X15574015Y-11618508D02*
X15593062Y-11608984D01*
X15783539Y-11608984D02*
X15802586Y-11608984D01*
X15802586Y-11608984D02*
X15821634Y-11618508D01*
X15821634Y-11618508D02*
X15831158Y-11628031D01*
X15831158Y-11628031D02*
X15840682Y-11647079D01*
X15840682Y-11647079D02*
X15850205Y-11685174D01*
X15850205Y-11685174D02*
X15850205Y-11732793D01*
X15850205Y-11732793D02*
X15840682Y-11770888D01*
X15840682Y-11770888D02*
X15831158Y-11789936D01*
X15831158Y-11789936D02*
X15821634Y-11799460D01*
X15821634Y-11799460D02*
X15802586Y-11808984D01*
X15802586Y-11808984D02*
X15783539Y-11808984D01*
X15783539Y-11808984D02*
X15764491Y-11799460D01*
X15764491Y-11799460D02*
X15754967Y-11789936D01*
X15754967Y-11789936D02*
X15745443Y-11770888D01*
X15745443Y-11770888D02*
X15735920Y-11732793D01*
X15735920Y-11732793D02*
X15735920Y-11685174D01*
X15735920Y-11685174D02*
X15745443Y-11647079D01*
X15745443Y-11647079D02*
X15754967Y-11628031D01*
X15754967Y-11628031D02*
X15764491Y-11618508D01*
X15764491Y-11618508D02*
X15783539Y-11608984D01*
X15935920Y-11808984D02*
X15935920Y-11675650D01*
X15935920Y-11694698D02*
X15945443Y-11685174D01*
X15945443Y-11685174D02*
X15964491Y-11675650D01*
X15964491Y-11675650D02*
X15993063Y-11675650D01*
X15993063Y-11675650D02*
X16012110Y-11685174D01*
X16012110Y-11685174D02*
X16021634Y-11704222D01*
X16021634Y-11704222D02*
X16021634Y-11808984D01*
X16021634Y-11704222D02*
X16031158Y-11685174D01*
X16031158Y-11685174D02*
X16050205Y-11675650D01*
X16050205Y-11675650D02*
X16078777Y-11675650D01*
X16078777Y-11675650D02*
X16097824Y-11685174D01*
X16097824Y-11685174D02*
X16107348Y-11704222D01*
X16107348Y-11704222D02*
X16107348Y-11808984D01*
X16202586Y-11808984D02*
X16202586Y-11675650D01*
X16202586Y-11694698D02*
X16212110Y-11685174D01*
X16212110Y-11685174D02*
X16231158Y-11675650D01*
X16231158Y-11675650D02*
X16259729Y-11675650D01*
X16259729Y-11675650D02*
X16278777Y-11685174D01*
X16278777Y-11685174D02*
X16288301Y-11704222D01*
X16288301Y-11704222D02*
X16288301Y-11808984D01*
X16288301Y-11704222D02*
X16297824Y-11685174D01*
X16297824Y-11685174D02*
X16316872Y-11675650D01*
X16316872Y-11675650D02*
X16345443Y-11675650D01*
X16345443Y-11675650D02*
X16364491Y-11685174D01*
X16364491Y-11685174D02*
X16374015Y-11704222D01*
X16374015Y-11704222D02*
X16374015Y-11808984D01*
X16764491Y-11599460D02*
X16593063Y-11856603D01*
X17021634Y-11608984D02*
X17040682Y-11608984D01*
X17040682Y-11608984D02*
X17059729Y-11618508D01*
X17059729Y-11618508D02*
X17069253Y-11628031D01*
X17069253Y-11628031D02*
X17078777Y-11647079D01*
X17078777Y-11647079D02*
X17088301Y-11685174D01*
X17088301Y-11685174D02*
X17088301Y-11732793D01*
X17088301Y-11732793D02*
X17078777Y-11770888D01*
X17078777Y-11770888D02*
X17069253Y-11789936D01*
X17069253Y-11789936D02*
X17059729Y-11799460D01*
X17059729Y-11799460D02*
X17040682Y-11808984D01*
X17040682Y-11808984D02*
X17021634Y-11808984D01*
X17021634Y-11808984D02*
X17002587Y-11799460D01*
X17002587Y-11799460D02*
X16993063Y-11789936D01*
X16993063Y-11789936D02*
X16983539Y-11770888D01*
X16983539Y-11770888D02*
X16974015Y-11732793D01*
X16974015Y-11732793D02*
X16974015Y-11685174D01*
X16974015Y-11685174D02*
X16983539Y-11647079D01*
X16983539Y-11647079D02*
X16993063Y-11628031D01*
X16993063Y-11628031D02*
X17002587Y-11618508D01*
X17002587Y-11618508D02*
X17021634Y-11608984D01*
X17174015Y-11789936D02*
X17183539Y-11799460D01*
X17183539Y-11799460D02*
X17174015Y-11808984D01*
X17174015Y-11808984D02*
X17164491Y-11799460D01*
X17164491Y-11799460D02*
X17174015Y-11789936D01*
X17174015Y-11789936D02*
X17174015Y-11808984D01*
X17307348Y-11608984D02*
X17326396Y-11608984D01*
X17326396Y-11608984D02*
X17345444Y-11618508D01*
X17345444Y-11618508D02*
X17354968Y-11628031D01*
X17354968Y-11628031D02*
X17364491Y-11647079D01*
X17364491Y-11647079D02*
X17374015Y-11685174D01*
X17374015Y-11685174D02*
X17374015Y-11732793D01*
X17374015Y-11732793D02*
X17364491Y-11770888D01*
X17364491Y-11770888D02*
X17354968Y-11789936D01*
X17354968Y-11789936D02*
X17345444Y-11799460D01*
X17345444Y-11799460D02*
X17326396Y-11808984D01*
X17326396Y-11808984D02*
X17307348Y-11808984D01*
X17307348Y-11808984D02*
X17288301Y-11799460D01*
X17288301Y-11799460D02*
X17278777Y-11789936D01*
X17278777Y-11789936D02*
X17269253Y-11770888D01*
X17269253Y-11770888D02*
X17259729Y-11732793D01*
X17259729Y-11732793D02*
X17259729Y-11685174D01*
X17259729Y-11685174D02*
X17269253Y-11647079D01*
X17269253Y-11647079D02*
X17278777Y-11628031D01*
X17278777Y-11628031D02*
X17288301Y-11618508D01*
X17288301Y-11618508D02*
X17307348Y-11608984D01*
X17440682Y-11608984D02*
X17564491Y-11608984D01*
X17564491Y-11608984D02*
X17497825Y-11685174D01*
X17497825Y-11685174D02*
X17526396Y-11685174D01*
X17526396Y-11685174D02*
X17545444Y-11694698D01*
X17545444Y-11694698D02*
X17554968Y-11704222D01*
X17554968Y-11704222D02*
X17564491Y-11723269D01*
X17564491Y-11723269D02*
X17564491Y-11770888D01*
X17564491Y-11770888D02*
X17554968Y-11789936D01*
X17554968Y-11789936D02*
X17545444Y-11799460D01*
X17545444Y-11799460D02*
X17526396Y-11808984D01*
X17526396Y-11808984D02*
X17469253Y-11808984D01*
X17469253Y-11808984D02*
X17450206Y-11799460D01*
X17450206Y-11799460D02*
X17440682Y-11789936D01*
X17659729Y-11808984D02*
X17697825Y-11808984D01*
X17697825Y-11808984D02*
X17716872Y-11799460D01*
X17716872Y-11799460D02*
X17726396Y-11789936D01*
X17726396Y-11789936D02*
X17745444Y-11761365D01*
X17745444Y-11761365D02*
X17754968Y-11723269D01*
X17754968Y-11723269D02*
X17754968Y-11647079D01*
X17754968Y-11647079D02*
X17745444Y-11628031D01*
X17745444Y-11628031D02*
X17735920Y-11618508D01*
X17735920Y-11618508D02*
X17716872Y-11608984D01*
X17716872Y-11608984D02*
X17678777Y-11608984D01*
X17678777Y-11608984D02*
X17659729Y-11618508D01*
X17659729Y-11618508D02*
X17650206Y-11628031D01*
X17650206Y-11628031D02*
X17640682Y-11647079D01*
X17640682Y-11647079D02*
X17640682Y-11694698D01*
X17640682Y-11694698D02*
X17650206Y-11713746D01*
X17650206Y-11713746D02*
X17659729Y-11723269D01*
X17659729Y-11723269D02*
X17678777Y-11732793D01*
X17678777Y-11732793D02*
X17716872Y-11732793D01*
X17716872Y-11732793D02*
X17735920Y-11723269D01*
X17735920Y-11723269D02*
X17745444Y-11713746D01*
X17745444Y-11713746D02*
X17754968Y-11694698D01*
X17926396Y-11675650D02*
X17926396Y-11808984D01*
X17878777Y-11599460D02*
X17831158Y-11742317D01*
X17831158Y-11742317D02*
X17954968Y-11742317D01*
X18021634Y-11608984D02*
X18021634Y-11647079D01*
X18097825Y-11608984D02*
X18097825Y-11647079D01*
X18393063Y-11885174D02*
X18383539Y-11875650D01*
X18383539Y-11875650D02*
X18364491Y-11847079D01*
X18364491Y-11847079D02*
X18354968Y-11828031D01*
X18354968Y-11828031D02*
X18345444Y-11799460D01*
X18345444Y-11799460D02*
X18335920Y-11751841D01*
X18335920Y-11751841D02*
X18335920Y-11713746D01*
X18335920Y-11713746D02*
X18345444Y-11666127D01*
X18345444Y-11666127D02*
X18354968Y-11637555D01*
X18354968Y-11637555D02*
X18364491Y-11618508D01*
X18364491Y-11618508D02*
X18383539Y-11589936D01*
X18383539Y-11589936D02*
X18393063Y-11580412D01*
X18450206Y-11608984D02*
X18583539Y-11608984D01*
X18583539Y-11608984D02*
X18497825Y-11808984D01*
X18812111Y-11808984D02*
X18812111Y-11608984D01*
X18897825Y-11808984D02*
X18897825Y-11704222D01*
X18897825Y-11704222D02*
X18888301Y-11685174D01*
X18888301Y-11685174D02*
X18869253Y-11675650D01*
X18869253Y-11675650D02*
X18840682Y-11675650D01*
X18840682Y-11675650D02*
X18821634Y-11685174D01*
X18821634Y-11685174D02*
X18812111Y-11694698D01*
X19021634Y-11808984D02*
X19002587Y-11799460D01*
X19002587Y-11799460D02*
X18993063Y-11789936D01*
X18993063Y-11789936D02*
X18983539Y-11770888D01*
X18983539Y-11770888D02*
X18983539Y-11713746D01*
X18983539Y-11713746D02*
X18993063Y-11694698D01*
X18993063Y-11694698D02*
X19002587Y-11685174D01*
X19002587Y-11685174D02*
X19021634Y-11675650D01*
X19021634Y-11675650D02*
X19050206Y-11675650D01*
X19050206Y-11675650D02*
X19069253Y-11685174D01*
X19069253Y-11685174D02*
X19078777Y-11694698D01*
X19078777Y-11694698D02*
X19088301Y-11713746D01*
X19088301Y-11713746D02*
X19088301Y-11770888D01*
X19088301Y-11770888D02*
X19078777Y-11789936D01*
X19078777Y-11789936D02*
X19069253Y-11799460D01*
X19069253Y-11799460D02*
X19050206Y-11808984D01*
X19050206Y-11808984D02*
X19021634Y-11808984D01*
X19202587Y-11808984D02*
X19183539Y-11799460D01*
X19183539Y-11799460D02*
X19174015Y-11780412D01*
X19174015Y-11780412D02*
X19174015Y-11608984D01*
X19354968Y-11799460D02*
X19335920Y-11808984D01*
X19335920Y-11808984D02*
X19297825Y-11808984D01*
X19297825Y-11808984D02*
X19278777Y-11799460D01*
X19278777Y-11799460D02*
X19269253Y-11780412D01*
X19269253Y-11780412D02*
X19269253Y-11704222D01*
X19269253Y-11704222D02*
X19278777Y-11685174D01*
X19278777Y-11685174D02*
X19297825Y-11675650D01*
X19297825Y-11675650D02*
X19335920Y-11675650D01*
X19335920Y-11675650D02*
X19354968Y-11685174D01*
X19354968Y-11685174D02*
X19364492Y-11704222D01*
X19364492Y-11704222D02*
X19364492Y-11723269D01*
X19364492Y-11723269D02*
X19269253Y-11742317D01*
X19440682Y-11799460D02*
X19459730Y-11808984D01*
X19459730Y-11808984D02*
X19497825Y-11808984D01*
X19497825Y-11808984D02*
X19516873Y-11799460D01*
X19516873Y-11799460D02*
X19526396Y-11780412D01*
X19526396Y-11780412D02*
X19526396Y-11770888D01*
X19526396Y-11770888D02*
X19516873Y-11751841D01*
X19516873Y-11751841D02*
X19497825Y-11742317D01*
X19497825Y-11742317D02*
X19469253Y-11742317D01*
X19469253Y-11742317D02*
X19450206Y-11732793D01*
X19450206Y-11732793D02*
X19440682Y-11713746D01*
X19440682Y-11713746D02*
X19440682Y-11704222D01*
X19440682Y-11704222D02*
X19450206Y-11685174D01*
X19450206Y-11685174D02*
X19469253Y-11675650D01*
X19469253Y-11675650D02*
X19497825Y-11675650D01*
X19497825Y-11675650D02*
X19516873Y-11685174D01*
X19593063Y-11885174D02*
X19602587Y-11875650D01*
X19602587Y-11875650D02*
X19621634Y-11847079D01*
X19621634Y-11847079D02*
X19631158Y-11828031D01*
X19631158Y-11828031D02*
X19640682Y-11799460D01*
X19640682Y-11799460D02*
X19650206Y-11751841D01*
X19650206Y-11751841D02*
X19650206Y-11713746D01*
X19650206Y-11713746D02*
X19640682Y-11666127D01*
X19640682Y-11666127D02*
X19631158Y-11637555D01*
X19631158Y-11637555D02*
X19621634Y-11618508D01*
X19621634Y-11618508D02*
X19602587Y-11589936D01*
X19602587Y-11589936D02*
X19593063Y-11580412D01*
X14718000Y-11881500D02*
X14718000Y-12081500D01*
X14618000Y-11981500D02*
X14818000Y-11981500D01*
X15069253Y-11892031D02*
X15078777Y-11882508D01*
X15078777Y-11882508D02*
X15097824Y-11872984D01*
X15097824Y-11872984D02*
X15145443Y-11872984D01*
X15145443Y-11872984D02*
X15164491Y-11882508D01*
X15164491Y-11882508D02*
X15174015Y-11892031D01*
X15174015Y-11892031D02*
X15183539Y-11911079D01*
X15183539Y-11911079D02*
X15183539Y-11930127D01*
X15183539Y-11930127D02*
X15174015Y-11958698D01*
X15174015Y-11958698D02*
X15059729Y-12072984D01*
X15059729Y-12072984D02*
X15183539Y-12072984D01*
X15269253Y-12053936D02*
X15278777Y-12063460D01*
X15278777Y-12063460D02*
X15269253Y-12072984D01*
X15269253Y-12072984D02*
X15259729Y-12063460D01*
X15259729Y-12063460D02*
X15269253Y-12053936D01*
X15269253Y-12053936D02*
X15269253Y-12072984D01*
X15354967Y-11892031D02*
X15364491Y-11882508D01*
X15364491Y-11882508D02*
X15383539Y-11872984D01*
X15383539Y-11872984D02*
X15431158Y-11872984D01*
X15431158Y-11872984D02*
X15450205Y-11882508D01*
X15450205Y-11882508D02*
X15459729Y-11892031D01*
X15459729Y-11892031D02*
X15469253Y-11911079D01*
X15469253Y-11911079D02*
X15469253Y-11930127D01*
X15469253Y-11930127D02*
X15459729Y-11958698D01*
X15459729Y-11958698D02*
X15345443Y-12072984D01*
X15345443Y-12072984D02*
X15469253Y-12072984D01*
X15593062Y-11872984D02*
X15612110Y-11872984D01*
X15612110Y-11872984D02*
X15631158Y-11882508D01*
X15631158Y-11882508D02*
X15640682Y-11892031D01*
X15640682Y-11892031D02*
X15650205Y-11911079D01*
X15650205Y-11911079D02*
X15659729Y-11949174D01*
X15659729Y-11949174D02*
X15659729Y-11996793D01*
X15659729Y-11996793D02*
X15650205Y-12034888D01*
X15650205Y-12034888D02*
X15640682Y-12053936D01*
X15640682Y-12053936D02*
X15631158Y-12063460D01*
X15631158Y-12063460D02*
X15612110Y-12072984D01*
X15612110Y-12072984D02*
X15593062Y-12072984D01*
X15593062Y-12072984D02*
X15574015Y-12063460D01*
X15574015Y-12063460D02*
X15564491Y-12053936D01*
X15564491Y-12053936D02*
X15554967Y-12034888D01*
X15554967Y-12034888D02*
X15545443Y-11996793D01*
X15545443Y-11996793D02*
X15545443Y-11949174D01*
X15545443Y-11949174D02*
X15554967Y-11911079D01*
X15554967Y-11911079D02*
X15564491Y-11892031D01*
X15564491Y-11892031D02*
X15574015Y-11882508D01*
X15574015Y-11882508D02*
X15593062Y-11872984D01*
X15783539Y-11872984D02*
X15802586Y-11872984D01*
X15802586Y-11872984D02*
X15821634Y-11882508D01*
X15821634Y-11882508D02*
X15831158Y-11892031D01*
X15831158Y-11892031D02*
X15840682Y-11911079D01*
X15840682Y-11911079D02*
X15850205Y-11949174D01*
X15850205Y-11949174D02*
X15850205Y-11996793D01*
X15850205Y-11996793D02*
X15840682Y-12034888D01*
X15840682Y-12034888D02*
X15831158Y-12053936D01*
X15831158Y-12053936D02*
X15821634Y-12063460D01*
X15821634Y-12063460D02*
X15802586Y-12072984D01*
X15802586Y-12072984D02*
X15783539Y-12072984D01*
X15783539Y-12072984D02*
X15764491Y-12063460D01*
X15764491Y-12063460D02*
X15754967Y-12053936D01*
X15754967Y-12053936D02*
X15745443Y-12034888D01*
X15745443Y-12034888D02*
X15735920Y-11996793D01*
X15735920Y-11996793D02*
X15735920Y-11949174D01*
X15735920Y-11949174D02*
X15745443Y-11911079D01*
X15745443Y-11911079D02*
X15754967Y-11892031D01*
X15754967Y-11892031D02*
X15764491Y-11882508D01*
X15764491Y-11882508D02*
X15783539Y-11872984D01*
X15935920Y-12072984D02*
X15935920Y-11939650D01*
X15935920Y-11958698D02*
X15945443Y-11949174D01*
X15945443Y-11949174D02*
X15964491Y-11939650D01*
X15964491Y-11939650D02*
X15993063Y-11939650D01*
X15993063Y-11939650D02*
X16012110Y-11949174D01*
X16012110Y-11949174D02*
X16021634Y-11968222D01*
X16021634Y-11968222D02*
X16021634Y-12072984D01*
X16021634Y-11968222D02*
X16031158Y-11949174D01*
X16031158Y-11949174D02*
X16050205Y-11939650D01*
X16050205Y-11939650D02*
X16078777Y-11939650D01*
X16078777Y-11939650D02*
X16097824Y-11949174D01*
X16097824Y-11949174D02*
X16107348Y-11968222D01*
X16107348Y-11968222D02*
X16107348Y-12072984D01*
X16202586Y-12072984D02*
X16202586Y-11939650D01*
X16202586Y-11958698D02*
X16212110Y-11949174D01*
X16212110Y-11949174D02*
X16231158Y-11939650D01*
X16231158Y-11939650D02*
X16259729Y-11939650D01*
X16259729Y-11939650D02*
X16278777Y-11949174D01*
X16278777Y-11949174D02*
X16288301Y-11968222D01*
X16288301Y-11968222D02*
X16288301Y-12072984D01*
X16288301Y-11968222D02*
X16297824Y-11949174D01*
X16297824Y-11949174D02*
X16316872Y-11939650D01*
X16316872Y-11939650D02*
X16345443Y-11939650D01*
X16345443Y-11939650D02*
X16364491Y-11949174D01*
X16364491Y-11949174D02*
X16374015Y-11968222D01*
X16374015Y-11968222D02*
X16374015Y-12072984D01*
X16764491Y-11863460D02*
X16593063Y-12120603D01*
X17021634Y-11872984D02*
X17040682Y-11872984D01*
X17040682Y-11872984D02*
X17059729Y-11882508D01*
X17059729Y-11882508D02*
X17069253Y-11892031D01*
X17069253Y-11892031D02*
X17078777Y-11911079D01*
X17078777Y-11911079D02*
X17088301Y-11949174D01*
X17088301Y-11949174D02*
X17088301Y-11996793D01*
X17088301Y-11996793D02*
X17078777Y-12034888D01*
X17078777Y-12034888D02*
X17069253Y-12053936D01*
X17069253Y-12053936D02*
X17059729Y-12063460D01*
X17059729Y-12063460D02*
X17040682Y-12072984D01*
X17040682Y-12072984D02*
X17021634Y-12072984D01*
X17021634Y-12072984D02*
X17002587Y-12063460D01*
X17002587Y-12063460D02*
X16993063Y-12053936D01*
X16993063Y-12053936D02*
X16983539Y-12034888D01*
X16983539Y-12034888D02*
X16974015Y-11996793D01*
X16974015Y-11996793D02*
X16974015Y-11949174D01*
X16974015Y-11949174D02*
X16983539Y-11911079D01*
X16983539Y-11911079D02*
X16993063Y-11892031D01*
X16993063Y-11892031D02*
X17002587Y-11882508D01*
X17002587Y-11882508D02*
X17021634Y-11872984D01*
X17174015Y-12053936D02*
X17183539Y-12063460D01*
X17183539Y-12063460D02*
X17174015Y-12072984D01*
X17174015Y-12072984D02*
X17164491Y-12063460D01*
X17164491Y-12063460D02*
X17174015Y-12053936D01*
X17174015Y-12053936D02*
X17174015Y-12072984D01*
X17307348Y-11872984D02*
X17326396Y-11872984D01*
X17326396Y-11872984D02*
X17345444Y-11882508D01*
X17345444Y-11882508D02*
X17354968Y-11892031D01*
X17354968Y-11892031D02*
X17364491Y-11911079D01*
X17364491Y-11911079D02*
X17374015Y-11949174D01*
X17374015Y-11949174D02*
X17374015Y-11996793D01*
X17374015Y-11996793D02*
X17364491Y-12034888D01*
X17364491Y-12034888D02*
X17354968Y-12053936D01*
X17354968Y-12053936D02*
X17345444Y-12063460D01*
X17345444Y-12063460D02*
X17326396Y-12072984D01*
X17326396Y-12072984D02*
X17307348Y-12072984D01*
X17307348Y-12072984D02*
X17288301Y-12063460D01*
X17288301Y-12063460D02*
X17278777Y-12053936D01*
X17278777Y-12053936D02*
X17269253Y-12034888D01*
X17269253Y-12034888D02*
X17259729Y-11996793D01*
X17259729Y-11996793D02*
X17259729Y-11949174D01*
X17259729Y-11949174D02*
X17269253Y-11911079D01*
X17269253Y-11911079D02*
X17278777Y-11892031D01*
X17278777Y-11892031D02*
X17288301Y-11882508D01*
X17288301Y-11882508D02*
X17307348Y-11872984D01*
X17488301Y-11958698D02*
X17469253Y-11949174D01*
X17469253Y-11949174D02*
X17459729Y-11939650D01*
X17459729Y-11939650D02*
X17450206Y-11920603D01*
X17450206Y-11920603D02*
X17450206Y-11911079D01*
X17450206Y-11911079D02*
X17459729Y-11892031D01*
X17459729Y-11892031D02*
X17469253Y-11882508D01*
X17469253Y-11882508D02*
X17488301Y-11872984D01*
X17488301Y-11872984D02*
X17526396Y-11872984D01*
X17526396Y-11872984D02*
X17545444Y-11882508D01*
X17545444Y-11882508D02*
X17554968Y-11892031D01*
X17554968Y-11892031D02*
X17564491Y-11911079D01*
X17564491Y-11911079D02*
X17564491Y-11920603D01*
X17564491Y-11920603D02*
X17554968Y-11939650D01*
X17554968Y-11939650D02*
X17545444Y-11949174D01*
X17545444Y-11949174D02*
X17526396Y-11958698D01*
X17526396Y-11958698D02*
X17488301Y-11958698D01*
X17488301Y-11958698D02*
X17469253Y-11968222D01*
X17469253Y-11968222D02*
X17459729Y-11977746D01*
X17459729Y-11977746D02*
X17450206Y-11996793D01*
X17450206Y-11996793D02*
X17450206Y-12034888D01*
X17450206Y-12034888D02*
X17459729Y-12053936D01*
X17459729Y-12053936D02*
X17469253Y-12063460D01*
X17469253Y-12063460D02*
X17488301Y-12072984D01*
X17488301Y-12072984D02*
X17526396Y-12072984D01*
X17526396Y-12072984D02*
X17545444Y-12063460D01*
X17545444Y-12063460D02*
X17554968Y-12053936D01*
X17554968Y-12053936D02*
X17564491Y-12034888D01*
X17564491Y-12034888D02*
X17564491Y-11996793D01*
X17564491Y-11996793D02*
X17554968Y-11977746D01*
X17554968Y-11977746D02*
X17545444Y-11968222D01*
X17545444Y-11968222D02*
X17526396Y-11958698D01*
X17735920Y-11872984D02*
X17697825Y-11872984D01*
X17697825Y-11872984D02*
X17678777Y-11882508D01*
X17678777Y-11882508D02*
X17669253Y-11892031D01*
X17669253Y-11892031D02*
X17650206Y-11920603D01*
X17650206Y-11920603D02*
X17640682Y-11958698D01*
X17640682Y-11958698D02*
X17640682Y-12034888D01*
X17640682Y-12034888D02*
X17650206Y-12053936D01*
X17650206Y-12053936D02*
X17659729Y-12063460D01*
X17659729Y-12063460D02*
X17678777Y-12072984D01*
X17678777Y-12072984D02*
X17716872Y-12072984D01*
X17716872Y-12072984D02*
X17735920Y-12063460D01*
X17735920Y-12063460D02*
X17745444Y-12053936D01*
X17745444Y-12053936D02*
X17754968Y-12034888D01*
X17754968Y-12034888D02*
X17754968Y-11987269D01*
X17754968Y-11987269D02*
X17745444Y-11968222D01*
X17745444Y-11968222D02*
X17735920Y-11958698D01*
X17735920Y-11958698D02*
X17716872Y-11949174D01*
X17716872Y-11949174D02*
X17678777Y-11949174D01*
X17678777Y-11949174D02*
X17659729Y-11958698D01*
X17659729Y-11958698D02*
X17650206Y-11968222D01*
X17650206Y-11968222D02*
X17640682Y-11987269D01*
X17926396Y-11872984D02*
X17888301Y-11872984D01*
X17888301Y-11872984D02*
X17869253Y-11882508D01*
X17869253Y-11882508D02*
X17859729Y-11892031D01*
X17859729Y-11892031D02*
X17840682Y-11920603D01*
X17840682Y-11920603D02*
X17831158Y-11958698D01*
X17831158Y-11958698D02*
X17831158Y-12034888D01*
X17831158Y-12034888D02*
X17840682Y-12053936D01*
X17840682Y-12053936D02*
X17850206Y-12063460D01*
X17850206Y-12063460D02*
X17869253Y-12072984D01*
X17869253Y-12072984D02*
X17907349Y-12072984D01*
X17907349Y-12072984D02*
X17926396Y-12063460D01*
X17926396Y-12063460D02*
X17935920Y-12053936D01*
X17935920Y-12053936D02*
X17945444Y-12034888D01*
X17945444Y-12034888D02*
X17945444Y-11987269D01*
X17945444Y-11987269D02*
X17935920Y-11968222D01*
X17935920Y-11968222D02*
X17926396Y-11958698D01*
X17926396Y-11958698D02*
X17907349Y-11949174D01*
X17907349Y-11949174D02*
X17869253Y-11949174D01*
X17869253Y-11949174D02*
X17850206Y-11958698D01*
X17850206Y-11958698D02*
X17840682Y-11968222D01*
X17840682Y-11968222D02*
X17831158Y-11987269D01*
X18021634Y-11872984D02*
X18021634Y-11911079D01*
X18097825Y-11872984D02*
X18097825Y-11911079D01*
X18393063Y-12149174D02*
X18383539Y-12139650D01*
X18383539Y-12139650D02*
X18364491Y-12111079D01*
X18364491Y-12111079D02*
X18354968Y-12092031D01*
X18354968Y-12092031D02*
X18345444Y-12063460D01*
X18345444Y-12063460D02*
X18335920Y-12015841D01*
X18335920Y-12015841D02*
X18335920Y-11977746D01*
X18335920Y-11977746D02*
X18345444Y-11930127D01*
X18345444Y-11930127D02*
X18354968Y-11901555D01*
X18354968Y-11901555D02*
X18364491Y-11882508D01*
X18364491Y-11882508D02*
X18383539Y-11853936D01*
X18383539Y-11853936D02*
X18393063Y-11844412D01*
X18459730Y-11892031D02*
X18469253Y-11882508D01*
X18469253Y-11882508D02*
X18488301Y-11872984D01*
X18488301Y-11872984D02*
X18535920Y-11872984D01*
X18535920Y-11872984D02*
X18554968Y-11882508D01*
X18554968Y-11882508D02*
X18564491Y-11892031D01*
X18564491Y-11892031D02*
X18574015Y-11911079D01*
X18574015Y-11911079D02*
X18574015Y-11930127D01*
X18574015Y-11930127D02*
X18564491Y-11958698D01*
X18564491Y-11958698D02*
X18450206Y-12072984D01*
X18450206Y-12072984D02*
X18574015Y-12072984D01*
X18812111Y-12072984D02*
X18812111Y-11872984D01*
X18897825Y-12072984D02*
X18897825Y-11968222D01*
X18897825Y-11968222D02*
X18888301Y-11949174D01*
X18888301Y-11949174D02*
X18869253Y-11939650D01*
X18869253Y-11939650D02*
X18840682Y-11939650D01*
X18840682Y-11939650D02*
X18821634Y-11949174D01*
X18821634Y-11949174D02*
X18812111Y-11958698D01*
X19021634Y-12072984D02*
X19002587Y-12063460D01*
X19002587Y-12063460D02*
X18993063Y-12053936D01*
X18993063Y-12053936D02*
X18983539Y-12034888D01*
X18983539Y-12034888D02*
X18983539Y-11977746D01*
X18983539Y-11977746D02*
X18993063Y-11958698D01*
X18993063Y-11958698D02*
X19002587Y-11949174D01*
X19002587Y-11949174D02*
X19021634Y-11939650D01*
X19021634Y-11939650D02*
X19050206Y-11939650D01*
X19050206Y-11939650D02*
X19069253Y-11949174D01*
X19069253Y-11949174D02*
X19078777Y-11958698D01*
X19078777Y-11958698D02*
X19088301Y-11977746D01*
X19088301Y-11977746D02*
X19088301Y-12034888D01*
X19088301Y-12034888D02*
X19078777Y-12053936D01*
X19078777Y-12053936D02*
X19069253Y-12063460D01*
X19069253Y-12063460D02*
X19050206Y-12072984D01*
X19050206Y-12072984D02*
X19021634Y-12072984D01*
X19202587Y-12072984D02*
X19183539Y-12063460D01*
X19183539Y-12063460D02*
X19174015Y-12044412D01*
X19174015Y-12044412D02*
X19174015Y-11872984D01*
X19354968Y-12063460D02*
X19335920Y-12072984D01*
X19335920Y-12072984D02*
X19297825Y-12072984D01*
X19297825Y-12072984D02*
X19278777Y-12063460D01*
X19278777Y-12063460D02*
X19269253Y-12044412D01*
X19269253Y-12044412D02*
X19269253Y-11968222D01*
X19269253Y-11968222D02*
X19278777Y-11949174D01*
X19278777Y-11949174D02*
X19297825Y-11939650D01*
X19297825Y-11939650D02*
X19335920Y-11939650D01*
X19335920Y-11939650D02*
X19354968Y-11949174D01*
X19354968Y-11949174D02*
X19364492Y-11968222D01*
X19364492Y-11968222D02*
X19364492Y-11987269D01*
X19364492Y-11987269D02*
X19269253Y-12006317D01*
X19440682Y-12063460D02*
X19459730Y-12072984D01*
X19459730Y-12072984D02*
X19497825Y-12072984D01*
X19497825Y-12072984D02*
X19516873Y-12063460D01*
X19516873Y-12063460D02*
X19526396Y-12044412D01*
X19526396Y-12044412D02*
X19526396Y-12034888D01*
X19526396Y-12034888D02*
X19516873Y-12015841D01*
X19516873Y-12015841D02*
X19497825Y-12006317D01*
X19497825Y-12006317D02*
X19469253Y-12006317D01*
X19469253Y-12006317D02*
X19450206Y-11996793D01*
X19450206Y-11996793D02*
X19440682Y-11977746D01*
X19440682Y-11977746D02*
X19440682Y-11968222D01*
X19440682Y-11968222D02*
X19450206Y-11949174D01*
X19450206Y-11949174D02*
X19469253Y-11939650D01*
X19469253Y-11939650D02*
X19497825Y-11939650D01*
X19497825Y-11939650D02*
X19516873Y-11949174D01*
X19593063Y-12149174D02*
X19602587Y-12139650D01*
X19602587Y-12139650D02*
X19621634Y-12111079D01*
X19621634Y-12111079D02*
X19631158Y-12092031D01*
X19631158Y-12092031D02*
X19640682Y-12063460D01*
X19640682Y-12063460D02*
X19650206Y-12015841D01*
X19650206Y-12015841D02*
X19650206Y-11977746D01*
X19650206Y-11977746D02*
X19640682Y-11930127D01*
X19640682Y-11930127D02*
X19631158Y-11901555D01*
X19631158Y-11901555D02*
X19621634Y-11882508D01*
X19621634Y-11882508D02*
X19602587Y-11853936D01*
X19602587Y-11853936D02*
X19593063Y-11844412D01*
M02*
