%TF.GenerationSoftware,KiCad,Pcbnew,7.0.6*%
%TF.CreationDate,2024-04-30T22:58:06+02:00*%
%TF.ProjectId,nboard,6e626f61-7264-42e6-9b69-6361645f7063,rev?*%
%TF.SameCoordinates,Original*%
%TF.FileFunction,Copper,L2,Bot*%
%TF.FilePolarity,Positive*%
%FSLAX46Y46*%
G04 Gerber Fmt 4.6, Leading zero omitted, Abs format (unit mm)*
G04 Created by KiCad (PCBNEW 7.0.6) date 2024-04-30 22:58:06*
%MOMM*%
%LPD*%
G01*
G04 APERTURE LIST*
%TA.AperFunction,ComponentPad*%
%ADD10C,2.600000*%
%TD*%
%TA.AperFunction,ConnectorPad*%
%ADD11C,3.800000*%
%TD*%
%TA.AperFunction,ComponentPad*%
%ADD12R,1.700000X1.700000*%
%TD*%
%TA.AperFunction,ComponentPad*%
%ADD13O,1.700000X1.700000*%
%TD*%
%TA.AperFunction,SMDPad,CuDef*%
%ADD14C,1.000000*%
%TD*%
%TA.AperFunction,ViaPad*%
%ADD15C,0.800000*%
%TD*%
%TA.AperFunction,ViaPad*%
%ADD16C,0.600000*%
%TD*%
%TA.AperFunction,Conductor*%
%ADD17C,1.000000*%
%TD*%
%TA.AperFunction,Conductor*%
%ADD18C,0.250000*%
%TD*%
%TA.AperFunction,Conductor*%
%ADD19C,0.400000*%
%TD*%
%TA.AperFunction,Conductor*%
%ADD20C,0.600000*%
%TD*%
G04 APERTURE END LIST*
D10*
%TO.P,H1,1,1*%
%TO.N,/+5V*%
X163700000Y-105700000D03*
D11*
X163700000Y-105700000D03*
%TD*%
D12*
%TO.P,J4,1,Pin_1*%
%TO.N,/R*%
X150100000Y-93520000D03*
D13*
%TO.P,J4,2,Pin_2*%
%TO.N,/G*%
X150100000Y-96060000D03*
%TO.P,J4,3,Pin_3*%
%TO.N,/B*%
X150100000Y-98600000D03*
%TO.P,J4,4,Pin_4*%
%TO.N,/IR*%
X150100000Y-101140000D03*
%TO.P,J4,5,Pin_5*%
%TO.N,/+5V*%
X150100000Y-103680000D03*
%TO.P,J4,6,Pin_6*%
%TO.N,/GND*%
X150100000Y-106220000D03*
%TD*%
D12*
%TO.P,J1,1,Pin_1*%
%TO.N,/3V3*%
X153750000Y-106220000D03*
%TD*%
D10*
%TO.P,H2,1,1*%
%TO.N,/GND*%
X158200000Y-105700000D03*
D11*
X158200000Y-105700000D03*
%TD*%
D14*
%TO.P,TP3,1,1*%
%TO.N,/RX*%
X162000000Y-73300000D03*
%TD*%
%TO.P,TP1,1,1*%
%TO.N,/3V3*%
X152700000Y-83100000D03*
%TD*%
%TO.P,TP2,1,1*%
%TO.N,/GND*%
X152700000Y-80330000D03*
%TD*%
%TO.P,TP6,1,1*%
%TO.N,/RST*%
X153600000Y-71300000D03*
%TD*%
%TO.P,TP5,1,1*%
%TO.N,/FLS*%
X161900000Y-78700000D03*
%TD*%
%TO.P,TP4,1,1*%
%TO.N,/TX*%
X162000000Y-71100000D03*
%TD*%
D15*
%TO.N,/GND*%
X159970000Y-96910000D03*
X164310000Y-95590000D03*
X152740000Y-91980000D03*
X165760000Y-86760000D03*
X165580000Y-102140000D03*
D16*
X155320000Y-100200000D03*
D15*
X159690000Y-92830000D03*
X157390000Y-99770000D03*
X160420000Y-99350000D03*
%TO.N,/3V3*%
X150500000Y-84800000D03*
%TO.N,/RX*%
X164200000Y-72800000D03*
%TO.N,/TX*%
X164300000Y-70800000D03*
%TO.N,/FLS*%
X164200000Y-78700000D03*
%TO.N,/RST*%
X150500000Y-70700000D03*
D16*
%TO.N,/R*%
X153000000Y-93400000D03*
D15*
%TO.N,/IR*%
X164200000Y-76700000D03*
%TO.N,Net-(U1-GPIO15)*%
X165500000Y-88600000D03*
X164200000Y-82700000D03*
%TO.N,Net-(Q3-B)*%
X154080000Y-90420000D03*
X152920000Y-98970000D03*
%TD*%
D17*
%TO.N,/+5V*%
X163700000Y-105700000D02*
X160800000Y-102800000D01*
X150980000Y-102800000D02*
X150100000Y-103680000D01*
X160800000Y-102800000D02*
X150980000Y-102800000D01*
D18*
%TO.N,/GND*%
X161850000Y-102140000D02*
X160400000Y-100690000D01*
X160420000Y-99380000D02*
X160420000Y-99350000D01*
X160400000Y-99400000D02*
X160420000Y-99380000D01*
X159690000Y-92830000D02*
X159520000Y-92660000D01*
X160450000Y-99350000D02*
X160420000Y-99380000D01*
X159690000Y-92830000D02*
X159470000Y-92610000D01*
X160420000Y-99350000D02*
X160450000Y-99350000D01*
X165580000Y-102140000D02*
X161850000Y-102140000D01*
X160400000Y-100690000D02*
X160400000Y-99400000D01*
D19*
%TO.N,/3V3*%
X151000000Y-84800000D02*
X150500000Y-84800000D01*
X152700000Y-83100000D02*
X151000000Y-84800000D01*
D18*
%TO.N,/RX*%
X164200000Y-72800000D02*
X162500000Y-72800000D01*
X162500000Y-72800000D02*
X162000000Y-73300000D01*
%TO.N,/TX*%
X164300000Y-70800000D02*
X162300000Y-70800000D01*
X162300000Y-70800000D02*
X162000000Y-71100000D01*
%TO.N,/FLS*%
X164200000Y-78700000D02*
X161900000Y-78700000D01*
%TO.N,/RST*%
X151100000Y-71300000D02*
X150500000Y-70700000D01*
X153600000Y-71300000D02*
X151100000Y-71300000D01*
%TO.N,/R*%
X153000000Y-93400000D02*
X152880000Y-93520000D01*
D20*
X152880000Y-93520000D02*
X150100000Y-93520000D01*
D18*
%TO.N,/IR*%
X155160000Y-83340000D02*
X155160000Y-98440000D01*
X152460000Y-101140000D02*
X150100000Y-101140000D01*
X155160000Y-98440000D02*
X152460000Y-101140000D01*
X161800000Y-76700000D02*
X155160000Y-83340000D01*
X164200000Y-76700000D02*
X161800000Y-76700000D01*
%TO.N,Net-(U1-GPIO15)*%
X165500000Y-88600000D02*
X164200000Y-87300000D01*
X164200000Y-87300000D02*
X164200000Y-82700000D01*
%TO.N,Net-(Q3-B)*%
X153625000Y-98275000D02*
X152930000Y-98970000D01*
X154080000Y-90420000D02*
X153625000Y-90875000D01*
X153625000Y-90875000D02*
X153625000Y-98275000D01*
%TD*%
%TA.AperFunction,Conductor*%
%TO.N,/GND*%
G36*
X149728149Y-69999685D02*
G01*
X149773904Y-70052489D01*
X149783848Y-70121647D01*
X149768497Y-70166000D01*
X149672821Y-70331715D01*
X149672818Y-70331722D01*
X149614327Y-70511740D01*
X149614326Y-70511744D01*
X149594540Y-70700000D01*
X149614326Y-70888256D01*
X149614327Y-70888259D01*
X149672818Y-71068277D01*
X149672821Y-71068284D01*
X149767467Y-71232216D01*
X149857506Y-71332214D01*
X149894129Y-71372888D01*
X150047265Y-71484148D01*
X150047270Y-71484151D01*
X150220192Y-71561142D01*
X150220197Y-71561144D01*
X150405354Y-71600500D01*
X150464547Y-71600500D01*
X150531586Y-71620185D01*
X150552228Y-71636819D01*
X150599197Y-71683788D01*
X150609022Y-71696051D01*
X150609243Y-71695869D01*
X150614214Y-71701878D01*
X150624689Y-71711714D01*
X150664635Y-71749226D01*
X150685529Y-71770120D01*
X150691011Y-71774373D01*
X150695443Y-71778157D01*
X150729418Y-71810062D01*
X150746976Y-71819714D01*
X150763235Y-71830395D01*
X150779064Y-71842673D01*
X150821838Y-71861182D01*
X150827056Y-71863738D01*
X150867908Y-71886197D01*
X150887316Y-71891180D01*
X150905717Y-71897480D01*
X150924104Y-71905437D01*
X150967488Y-71912308D01*
X150970119Y-71912725D01*
X150975839Y-71913909D01*
X151020981Y-71925500D01*
X151041016Y-71925500D01*
X151060414Y-71927026D01*
X151080194Y-71930159D01*
X151080195Y-71930160D01*
X151080195Y-71930159D01*
X151080196Y-71930160D01*
X151126583Y-71925775D01*
X151132422Y-71925500D01*
X152760397Y-71925500D01*
X152827436Y-71945185D01*
X152856250Y-71970835D01*
X152889116Y-72010883D01*
X153041460Y-72135909D01*
X153041467Y-72135913D01*
X153215266Y-72228811D01*
X153215269Y-72228811D01*
X153215273Y-72228814D01*
X153403868Y-72286024D01*
X153600000Y-72305341D01*
X153796132Y-72286024D01*
X153984727Y-72228814D01*
X153998632Y-72221382D01*
X154158532Y-72135913D01*
X154158538Y-72135910D01*
X154310883Y-72010883D01*
X154435910Y-71858538D01*
X154522761Y-71696051D01*
X154528811Y-71684733D01*
X154528811Y-71684732D01*
X154528814Y-71684727D01*
X154586024Y-71496132D01*
X154605341Y-71300000D01*
X154586024Y-71103868D01*
X154528814Y-70915273D01*
X154528811Y-70915269D01*
X154528811Y-70915266D01*
X154435913Y-70741467D01*
X154435909Y-70741460D01*
X154310883Y-70589116D01*
X154158539Y-70464090D01*
X154158532Y-70464086D01*
X153984733Y-70371188D01*
X153984727Y-70371186D01*
X153796132Y-70313976D01*
X153796129Y-70313975D01*
X153600000Y-70294659D01*
X153403870Y-70313975D01*
X153215266Y-70371188D01*
X153041467Y-70464086D01*
X153041460Y-70464090D01*
X152889116Y-70589116D01*
X152856250Y-70629165D01*
X152798505Y-70668499D01*
X152760397Y-70674500D01*
X151514430Y-70674500D01*
X151447391Y-70654815D01*
X151401636Y-70602011D01*
X151391110Y-70563465D01*
X151385674Y-70511744D01*
X151327179Y-70331716D01*
X151232533Y-70167784D01*
X151232532Y-70167783D01*
X151231503Y-70166000D01*
X151215030Y-70098100D01*
X151237883Y-70032073D01*
X151292804Y-69988882D01*
X151338890Y-69980000D01*
X161477920Y-69980000D01*
X161544959Y-69999685D01*
X161590714Y-70052489D01*
X161600658Y-70121647D01*
X161571633Y-70185203D01*
X161536373Y-70213358D01*
X161441467Y-70264085D01*
X161441460Y-70264090D01*
X161289116Y-70389116D01*
X161164090Y-70541460D01*
X161164086Y-70541467D01*
X161071188Y-70715266D01*
X161013975Y-70903870D01*
X160994659Y-71100000D01*
X161013975Y-71296129D01*
X161013976Y-71296132D01*
X161071010Y-71484148D01*
X161071188Y-71484733D01*
X161164086Y-71658532D01*
X161164090Y-71658539D01*
X161289116Y-71810883D01*
X161441460Y-71935909D01*
X161441467Y-71935913D01*
X161506802Y-71970835D01*
X161615273Y-72028814D01*
X161683146Y-72049403D01*
X161788425Y-72081340D01*
X161846863Y-72119637D01*
X161875320Y-72183450D01*
X161864759Y-72252516D01*
X161818534Y-72304910D01*
X161788425Y-72318660D01*
X161615271Y-72371186D01*
X161441467Y-72464086D01*
X161441460Y-72464090D01*
X161289116Y-72589116D01*
X161164090Y-72741460D01*
X161164086Y-72741467D01*
X161071188Y-72915266D01*
X161013975Y-73103870D01*
X160994659Y-73300000D01*
X161013975Y-73496129D01*
X161071188Y-73684733D01*
X161164086Y-73858532D01*
X161164090Y-73858539D01*
X161289116Y-74010883D01*
X161441460Y-74135909D01*
X161441467Y-74135913D01*
X161615266Y-74228811D01*
X161615269Y-74228811D01*
X161615273Y-74228814D01*
X161803868Y-74286024D01*
X162000000Y-74305341D01*
X162196132Y-74286024D01*
X162384727Y-74228814D01*
X162558538Y-74135910D01*
X162710883Y-74010883D01*
X162835910Y-73858538D01*
X162928814Y-73684727D01*
X162959324Y-73584151D01*
X162980755Y-73513504D01*
X163019052Y-73455066D01*
X163082865Y-73426609D01*
X163099415Y-73425500D01*
X163496252Y-73425500D01*
X163563291Y-73445185D01*
X163588400Y-73466526D01*
X163594126Y-73472885D01*
X163594130Y-73472889D01*
X163747265Y-73584148D01*
X163747270Y-73584151D01*
X163920192Y-73661142D01*
X163920197Y-73661144D01*
X164105354Y-73700500D01*
X164105355Y-73700500D01*
X164294644Y-73700500D01*
X164294646Y-73700500D01*
X164479803Y-73661144D01*
X164652730Y-73584151D01*
X164805871Y-73472888D01*
X164932533Y-73332216D01*
X165027179Y-73168284D01*
X165085674Y-72988256D01*
X165105460Y-72800000D01*
X165085674Y-72611744D01*
X165027179Y-72431716D01*
X164932533Y-72267784D01*
X164805871Y-72127112D01*
X164805870Y-72127111D01*
X164652734Y-72015851D01*
X164652729Y-72015848D01*
X164479807Y-71938857D01*
X164479803Y-71938856D01*
X164447159Y-71931917D01*
X164385677Y-71898724D01*
X164351901Y-71837561D01*
X164356555Y-71767846D01*
X164398160Y-71711714D01*
X164447154Y-71689339D01*
X164579803Y-71661144D01*
X164579807Y-71661142D01*
X164579808Y-71661142D01*
X164671797Y-71620185D01*
X164752730Y-71584151D01*
X164905871Y-71472888D01*
X165032533Y-71332216D01*
X165127179Y-71168284D01*
X165185674Y-70988256D01*
X165205460Y-70800000D01*
X165185674Y-70611744D01*
X165127179Y-70431716D01*
X165032533Y-70267784D01*
X164959768Y-70186971D01*
X164929539Y-70123981D01*
X164938164Y-70054646D01*
X164982905Y-70000980D01*
X165049558Y-69980022D01*
X165051919Y-69980000D01*
X166425500Y-69980000D01*
X166492539Y-69999685D01*
X166538294Y-70052489D01*
X166549500Y-70104000D01*
X166549500Y-88154013D01*
X166529815Y-88221052D01*
X166477011Y-88266807D01*
X166407853Y-88276751D01*
X166344297Y-88247726D01*
X166318113Y-88216013D01*
X166282317Y-88154013D01*
X166232533Y-88067784D01*
X166105871Y-87927112D01*
X166105870Y-87927111D01*
X165952734Y-87815851D01*
X165952729Y-87815848D01*
X165779807Y-87738857D01*
X165779802Y-87738855D01*
X165632208Y-87707484D01*
X165594646Y-87699500D01*
X165594645Y-87699500D01*
X165535452Y-87699500D01*
X165468413Y-87679815D01*
X165447771Y-87663181D01*
X164861819Y-87077228D01*
X164828334Y-87015905D01*
X164825500Y-86989547D01*
X164825500Y-83398687D01*
X164845185Y-83331648D01*
X164857350Y-83315715D01*
X164875891Y-83295122D01*
X164932533Y-83232216D01*
X165027179Y-83068284D01*
X165085674Y-82888256D01*
X165105460Y-82700000D01*
X165085674Y-82511744D01*
X165027179Y-82331716D01*
X164932533Y-82167784D01*
X164805871Y-82027112D01*
X164805870Y-82027111D01*
X164652734Y-81915851D01*
X164652729Y-81915848D01*
X164479807Y-81838857D01*
X164479802Y-81838855D01*
X164334001Y-81807865D01*
X164294646Y-81799500D01*
X164105354Y-81799500D01*
X164072897Y-81806398D01*
X163920197Y-81838855D01*
X163920192Y-81838857D01*
X163747270Y-81915848D01*
X163747265Y-81915851D01*
X163594129Y-82027111D01*
X163467466Y-82167785D01*
X163372821Y-82331715D01*
X163372818Y-82331722D01*
X163314327Y-82511740D01*
X163314326Y-82511744D01*
X163294540Y-82700000D01*
X163314326Y-82888256D01*
X163314327Y-82888259D01*
X163372818Y-83068277D01*
X163372821Y-83068284D01*
X163467467Y-83232216D01*
X163510772Y-83280310D01*
X163542650Y-83315715D01*
X163572880Y-83378706D01*
X163574500Y-83398687D01*
X163574500Y-87217255D01*
X163572775Y-87232872D01*
X163573061Y-87232899D01*
X163572326Y-87240665D01*
X163574500Y-87309814D01*
X163574500Y-87339343D01*
X163574501Y-87339360D01*
X163575368Y-87346231D01*
X163575826Y-87352050D01*
X163577290Y-87398624D01*
X163577291Y-87398627D01*
X163582880Y-87417867D01*
X163586824Y-87436911D01*
X163589336Y-87456791D01*
X163606490Y-87500119D01*
X163608382Y-87505647D01*
X163621381Y-87550388D01*
X163631580Y-87567634D01*
X163640138Y-87585103D01*
X163647514Y-87603732D01*
X163674898Y-87641423D01*
X163678106Y-87646307D01*
X163701827Y-87686416D01*
X163701833Y-87686424D01*
X163715990Y-87700580D01*
X163728628Y-87715376D01*
X163740405Y-87731586D01*
X163740406Y-87731587D01*
X163776309Y-87761288D01*
X163780620Y-87765210D01*
X164231423Y-88216013D01*
X164561038Y-88545628D01*
X164594523Y-88606951D01*
X164596678Y-88620347D01*
X164604139Y-88691338D01*
X164614326Y-88788256D01*
X164614327Y-88788259D01*
X164672818Y-88968277D01*
X164672821Y-88968284D01*
X164767467Y-89132216D01*
X164894129Y-89272888D01*
X165047265Y-89384148D01*
X165047270Y-89384151D01*
X165220192Y-89461142D01*
X165220197Y-89461144D01*
X165405354Y-89500500D01*
X165405355Y-89500500D01*
X165594644Y-89500500D01*
X165594646Y-89500500D01*
X165779803Y-89461144D01*
X165952730Y-89384151D01*
X166105871Y-89272888D01*
X166232533Y-89132216D01*
X166318112Y-88983987D01*
X166368679Y-88935771D01*
X166437286Y-88922547D01*
X166502151Y-88948515D01*
X166542680Y-89005429D01*
X166549500Y-89045986D01*
X166549500Y-107875909D01*
X166529815Y-107942948D01*
X166477011Y-107988703D01*
X166425432Y-107999909D01*
X164983627Y-107999122D01*
X164916599Y-107979401D01*
X164870873Y-107926572D01*
X164860967Y-107857408D01*
X164890026Y-107793868D01*
X164923954Y-107766462D01*
X164988795Y-107730816D01*
X165233162Y-107553274D01*
X165453349Y-107346504D01*
X165645885Y-107113768D01*
X165807733Y-106858736D01*
X165936341Y-106585430D01*
X166029681Y-106298160D01*
X166086280Y-106001457D01*
X166086281Y-106001446D01*
X166105246Y-105700005D01*
X166105246Y-105699994D01*
X166086281Y-105398553D01*
X166086280Y-105398546D01*
X166086280Y-105398543D01*
X166029681Y-105101840D01*
X165936341Y-104814570D01*
X165915561Y-104770411D01*
X165835372Y-104600000D01*
X165807733Y-104541264D01*
X165691325Y-104357834D01*
X165645888Y-104286236D01*
X165527942Y-104143664D01*
X165453349Y-104053496D01*
X165233162Y-103846726D01*
X165233159Y-103846724D01*
X165233153Y-103846719D01*
X164988806Y-103669191D01*
X164988799Y-103669186D01*
X164988795Y-103669184D01*
X164724104Y-103523668D01*
X164724101Y-103523666D01*
X164724096Y-103523664D01*
X164724095Y-103523663D01*
X164443265Y-103412475D01*
X164443262Y-103412474D01*
X164150695Y-103337357D01*
X163851036Y-103299500D01*
X163851027Y-103299500D01*
X163548973Y-103299500D01*
X163548963Y-103299500D01*
X163249304Y-103337357D01*
X162956743Y-103412473D01*
X162956739Y-103412474D01*
X162939806Y-103419178D01*
X162870228Y-103425551D01*
X162808249Y-103393295D01*
X162806484Y-103391564D01*
X161516452Y-102101532D01*
X161455061Y-102036949D01*
X161455060Y-102036948D01*
X161455059Y-102036947D01*
X161427204Y-102017559D01*
X161404709Y-102001902D01*
X161400946Y-101999064D01*
X161353413Y-101960305D01*
X161353406Y-101960300D01*
X161322959Y-101944397D01*
X161316251Y-101940334D01*
X161288049Y-101920705D01*
X161288046Y-101920703D01*
X161288045Y-101920703D01*
X161288041Y-101920701D01*
X161231680Y-101896514D01*
X161227424Y-101894493D01*
X161173057Y-101866094D01*
X161173050Y-101866091D01*
X161173049Y-101866091D01*
X161167008Y-101864362D01*
X161140030Y-101856642D01*
X161132630Y-101854008D01*
X161101057Y-101840459D01*
X161101058Y-101840459D01*
X161040966Y-101828109D01*
X161036391Y-101826986D01*
X160977420Y-101810113D01*
X160977425Y-101810113D01*
X160943158Y-101807503D01*
X160935380Y-101806412D01*
X160901742Y-101799500D01*
X160901741Y-101799500D01*
X160840402Y-101799500D01*
X160835695Y-101799321D01*
X160830121Y-101798896D01*
X160774524Y-101794662D01*
X160754589Y-101797201D01*
X160740440Y-101799003D01*
X160732611Y-101799500D01*
X152989724Y-101799500D01*
X152922685Y-101779815D01*
X152876930Y-101727011D01*
X152866986Y-101657853D01*
X152894177Y-101596463D01*
X152921300Y-101563675D01*
X152925212Y-101559376D01*
X155543786Y-98940802D01*
X155556048Y-98930980D01*
X155555865Y-98930759D01*
X155561867Y-98925792D01*
X155561877Y-98925786D01*
X155609241Y-98875348D01*
X155630120Y-98854470D01*
X155634373Y-98848986D01*
X155638150Y-98844563D01*
X155670062Y-98810582D01*
X155679714Y-98793023D01*
X155690389Y-98776772D01*
X155702674Y-98760936D01*
X155721186Y-98718152D01*
X155723742Y-98712935D01*
X155746197Y-98672092D01*
X155751180Y-98652680D01*
X155757477Y-98634291D01*
X155765438Y-98615895D01*
X155772729Y-98569853D01*
X155773908Y-98564162D01*
X155785500Y-98519019D01*
X155785500Y-98498982D01*
X155787027Y-98479582D01*
X155790160Y-98459804D01*
X155785775Y-98413415D01*
X155785500Y-98407577D01*
X155785500Y-83650452D01*
X155805185Y-83583413D01*
X155821819Y-83562771D01*
X158192514Y-81192076D01*
X160690439Y-78694150D01*
X160751760Y-78660667D01*
X160821452Y-78665651D01*
X160877385Y-78707523D01*
X160901521Y-78769678D01*
X160913975Y-78896129D01*
X160971188Y-79084733D01*
X161064086Y-79258532D01*
X161064090Y-79258539D01*
X161189116Y-79410883D01*
X161341460Y-79535909D01*
X161341467Y-79535913D01*
X161515266Y-79628811D01*
X161515269Y-79628811D01*
X161515273Y-79628814D01*
X161703868Y-79686024D01*
X161900000Y-79705341D01*
X162096132Y-79686024D01*
X162284727Y-79628814D01*
X162458538Y-79535910D01*
X162610883Y-79410883D01*
X162642065Y-79372888D01*
X162643750Y-79370835D01*
X162701495Y-79331501D01*
X162739603Y-79325500D01*
X163496252Y-79325500D01*
X163563291Y-79345185D01*
X163588400Y-79366526D01*
X163594126Y-79372885D01*
X163594130Y-79372889D01*
X163747265Y-79484148D01*
X163747270Y-79484151D01*
X163920192Y-79561142D01*
X163920197Y-79561144D01*
X164105354Y-79600500D01*
X164105355Y-79600500D01*
X164294644Y-79600500D01*
X164294646Y-79600500D01*
X164479803Y-79561144D01*
X164652730Y-79484151D01*
X164805871Y-79372888D01*
X164932533Y-79232216D01*
X165027179Y-79068284D01*
X165085674Y-78888256D01*
X165105460Y-78700000D01*
X165085674Y-78511744D01*
X165027179Y-78331716D01*
X164932533Y-78167784D01*
X164805871Y-78027112D01*
X164805870Y-78027111D01*
X164652734Y-77915851D01*
X164652729Y-77915848D01*
X164479807Y-77838857D01*
X164479800Y-77838855D01*
X164397161Y-77821290D01*
X164335679Y-77788098D01*
X164301902Y-77726935D01*
X164306554Y-77657221D01*
X164348158Y-77601088D01*
X164397161Y-77578710D01*
X164403201Y-77577426D01*
X164479803Y-77561144D01*
X164652730Y-77484151D01*
X164805871Y-77372888D01*
X164932533Y-77232216D01*
X165027179Y-77068284D01*
X165085674Y-76888256D01*
X165105460Y-76700000D01*
X165085674Y-76511744D01*
X165027179Y-76331716D01*
X164932533Y-76167784D01*
X164805871Y-76027112D01*
X164805870Y-76027111D01*
X164652734Y-75915851D01*
X164652729Y-75915848D01*
X164479807Y-75838857D01*
X164479802Y-75838855D01*
X164334000Y-75807865D01*
X164294646Y-75799500D01*
X164105354Y-75799500D01*
X164072897Y-75806398D01*
X163920197Y-75838855D01*
X163920192Y-75838857D01*
X163747270Y-75915848D01*
X163747265Y-75915851D01*
X163594130Y-76027110D01*
X163594126Y-76027114D01*
X163588400Y-76033474D01*
X163528913Y-76070121D01*
X163496252Y-76074500D01*
X161882738Y-76074500D01*
X161867121Y-76072776D01*
X161867094Y-76073062D01*
X161859332Y-76072327D01*
X161790204Y-76074500D01*
X161760650Y-76074500D01*
X161759929Y-76074590D01*
X161753757Y-76075369D01*
X161747945Y-76075826D01*
X161701373Y-76077290D01*
X161701372Y-76077290D01*
X161682129Y-76082881D01*
X161663079Y-76086825D01*
X161643211Y-76089334D01*
X161599884Y-76106488D01*
X161594358Y-76108379D01*
X161549614Y-76121379D01*
X161549610Y-76121381D01*
X161532366Y-76131579D01*
X161514905Y-76140133D01*
X161496274Y-76147510D01*
X161496262Y-76147517D01*
X161458570Y-76174902D01*
X161453687Y-76178109D01*
X161413580Y-76201829D01*
X161399414Y-76215995D01*
X161384624Y-76228627D01*
X161368414Y-76240404D01*
X161368411Y-76240407D01*
X161338710Y-76276309D01*
X161334777Y-76280631D01*
X154776208Y-82839199D01*
X154763951Y-82849020D01*
X154764134Y-82849241D01*
X154758123Y-82854213D01*
X154710772Y-82904636D01*
X154689889Y-82925519D01*
X154689877Y-82925532D01*
X154685621Y-82931017D01*
X154681837Y-82935447D01*
X154649937Y-82969418D01*
X154649936Y-82969420D01*
X154640284Y-82986976D01*
X154629610Y-83003226D01*
X154617329Y-83019061D01*
X154617324Y-83019068D01*
X154598815Y-83061838D01*
X154596245Y-83067084D01*
X154573803Y-83107906D01*
X154568822Y-83127307D01*
X154562521Y-83145710D01*
X154554562Y-83164102D01*
X154554561Y-83164105D01*
X154547271Y-83210127D01*
X154546087Y-83215846D01*
X154534501Y-83260972D01*
X154534500Y-83260982D01*
X154534500Y-83281016D01*
X154532973Y-83300415D01*
X154529840Y-83320194D01*
X154529840Y-83320195D01*
X154534225Y-83366583D01*
X154534500Y-83372421D01*
X154534500Y-89445692D01*
X154514815Y-89512731D01*
X154462011Y-89558486D01*
X154392853Y-89568430D01*
X154366041Y-89560696D01*
X154365987Y-89560865D01*
X154360934Y-89559223D01*
X154360073Y-89558975D01*
X154359811Y-89558858D01*
X154359802Y-89558855D01*
X154214001Y-89527865D01*
X154174646Y-89519500D01*
X153985354Y-89519500D01*
X153952897Y-89526398D01*
X153800197Y-89558855D01*
X153800192Y-89558857D01*
X153627270Y-89635848D01*
X153627265Y-89635851D01*
X153474129Y-89747111D01*
X153347466Y-89887785D01*
X153252821Y-90051715D01*
X153252818Y-90051722D01*
X153194327Y-90231740D01*
X153194326Y-90231744D01*
X153176423Y-90402085D01*
X153149838Y-90466699D01*
X153143497Y-90474004D01*
X153114937Y-90504418D01*
X153114936Y-90504420D01*
X153105284Y-90521976D01*
X153094610Y-90538226D01*
X153082329Y-90554061D01*
X153082324Y-90554068D01*
X153063815Y-90596838D01*
X153061245Y-90602084D01*
X153038803Y-90642906D01*
X153033822Y-90662307D01*
X153027521Y-90680710D01*
X153019562Y-90699102D01*
X153019561Y-90699105D01*
X153012271Y-90745127D01*
X153011087Y-90750846D01*
X152999501Y-90795972D01*
X152999500Y-90795982D01*
X152999500Y-90816016D01*
X152997973Y-90835415D01*
X152994840Y-90855194D01*
X152994840Y-90855195D01*
X152999225Y-90901583D01*
X152999500Y-90907421D01*
X152999500Y-92483677D01*
X152979815Y-92550716D01*
X152927011Y-92596471D01*
X152889384Y-92606897D01*
X152820750Y-92614630D01*
X152650476Y-92674211D01*
X152608650Y-92700493D01*
X152542677Y-92719500D01*
X151572351Y-92719500D01*
X151505312Y-92699815D01*
X151459557Y-92647011D01*
X151449061Y-92608752D01*
X151444091Y-92562516D01*
X151393797Y-92427671D01*
X151393793Y-92427664D01*
X151307547Y-92312455D01*
X151307544Y-92312452D01*
X151192335Y-92226206D01*
X151192328Y-92226202D01*
X151057482Y-92175908D01*
X151057483Y-92175908D01*
X150997883Y-92169501D01*
X150997881Y-92169500D01*
X150997873Y-92169500D01*
X150997864Y-92169500D01*
X149202129Y-92169500D01*
X149202123Y-92169501D01*
X149142516Y-92175908D01*
X149007671Y-92226202D01*
X149007664Y-92226206D01*
X148892455Y-92312452D01*
X148892452Y-92312455D01*
X148806206Y-92427664D01*
X148806202Y-92427671D01*
X148755908Y-92562517D01*
X148749501Y-92622116D01*
X148749500Y-92622135D01*
X148749500Y-94417870D01*
X148749501Y-94417876D01*
X148755908Y-94477483D01*
X148806202Y-94612328D01*
X148806206Y-94612335D01*
X148892452Y-94727544D01*
X148892455Y-94727547D01*
X149007664Y-94813793D01*
X149007671Y-94813797D01*
X149139081Y-94862810D01*
X149195015Y-94904681D01*
X149219432Y-94970145D01*
X149204580Y-95038418D01*
X149183430Y-95066673D01*
X149061503Y-95188600D01*
X148925965Y-95382169D01*
X148925964Y-95382171D01*
X148826098Y-95596335D01*
X148826094Y-95596344D01*
X148764938Y-95824586D01*
X148764936Y-95824596D01*
X148744341Y-96059999D01*
X148744341Y-96060000D01*
X148764936Y-96295403D01*
X148764938Y-96295413D01*
X148826094Y-96523655D01*
X148826096Y-96523659D01*
X148826097Y-96523663D01*
X148925964Y-96737829D01*
X148925965Y-96737830D01*
X148925967Y-96737834D01*
X149061501Y-96931395D01*
X149061506Y-96931402D01*
X149228597Y-97098493D01*
X149228603Y-97098498D01*
X149414158Y-97228425D01*
X149457783Y-97283002D01*
X149464977Y-97352500D01*
X149433454Y-97414855D01*
X149414158Y-97431575D01*
X149228597Y-97561505D01*
X149061505Y-97728597D01*
X148925965Y-97922169D01*
X148925964Y-97922171D01*
X148826098Y-98136335D01*
X148826094Y-98136344D01*
X148764938Y-98364586D01*
X148764936Y-98364596D01*
X148744341Y-98599999D01*
X148744341Y-98600000D01*
X148764936Y-98835403D01*
X148764938Y-98835413D01*
X148826094Y-99063655D01*
X148826096Y-99063659D01*
X148826097Y-99063663D01*
X148870207Y-99158256D01*
X148925965Y-99277830D01*
X148925967Y-99277834D01*
X149061501Y-99471395D01*
X149061506Y-99471402D01*
X149228597Y-99638493D01*
X149228603Y-99638498D01*
X149414158Y-99768425D01*
X149457783Y-99823002D01*
X149464977Y-99892500D01*
X149433454Y-99954855D01*
X149414158Y-99971575D01*
X149228597Y-100101505D01*
X149061505Y-100268597D01*
X148925965Y-100462169D01*
X148925964Y-100462171D01*
X148826098Y-100676335D01*
X148826094Y-100676344D01*
X148764938Y-100904586D01*
X148764936Y-100904596D01*
X148744341Y-101139999D01*
X148744341Y-101140000D01*
X148764936Y-101375403D01*
X148764938Y-101375413D01*
X148826094Y-101603655D01*
X148826096Y-101603659D01*
X148826097Y-101603663D01*
X148925964Y-101817830D01*
X148925965Y-101817830D01*
X148925967Y-101817834D01*
X149061501Y-102011395D01*
X149061506Y-102011402D01*
X149228597Y-102178493D01*
X149228603Y-102178498D01*
X149414158Y-102308425D01*
X149457783Y-102363002D01*
X149464977Y-102432500D01*
X149433454Y-102494855D01*
X149414158Y-102511575D01*
X149228597Y-102641505D01*
X149061505Y-102808597D01*
X148925965Y-103002169D01*
X148925964Y-103002171D01*
X148826098Y-103216335D01*
X148826094Y-103216344D01*
X148764938Y-103444586D01*
X148764936Y-103444596D01*
X148744341Y-103679999D01*
X148744341Y-103680000D01*
X148764936Y-103915403D01*
X148764938Y-103915413D01*
X148826094Y-104143655D01*
X148826096Y-104143659D01*
X148826097Y-104143663D01*
X148925965Y-104357829D01*
X148925965Y-104357830D01*
X148925967Y-104357834D01*
X149034281Y-104512521D01*
X149061505Y-104551401D01*
X149228599Y-104718495D01*
X149389855Y-104831408D01*
X149414594Y-104848730D01*
X149458219Y-104903307D01*
X149465413Y-104972805D01*
X149433890Y-105035160D01*
X149414595Y-105051880D01*
X149228922Y-105181890D01*
X149228920Y-105181891D01*
X149061891Y-105348920D01*
X149061886Y-105348926D01*
X148926400Y-105542420D01*
X148926399Y-105542422D01*
X148826570Y-105756507D01*
X148826567Y-105756513D01*
X148769364Y-105969999D01*
X148769364Y-105970000D01*
X149666314Y-105970000D01*
X149640507Y-106010156D01*
X149600000Y-106148111D01*
X149600000Y-106291889D01*
X149640507Y-106429844D01*
X149666314Y-106470000D01*
X148769364Y-106470000D01*
X148826567Y-106683486D01*
X148826570Y-106683492D01*
X148926399Y-106897578D01*
X149061894Y-107091082D01*
X149228917Y-107258105D01*
X149422421Y-107393600D01*
X149636507Y-107493429D01*
X149636516Y-107493433D01*
X149850000Y-107550634D01*
X149850000Y-106655501D01*
X149957685Y-106704680D01*
X150064237Y-106720000D01*
X150135763Y-106720000D01*
X150242315Y-106704680D01*
X150350000Y-106655501D01*
X150350000Y-107550633D01*
X150563483Y-107493433D01*
X150563492Y-107493429D01*
X150777578Y-107393600D01*
X150971082Y-107258105D01*
X151111317Y-107117870D01*
X152399500Y-107117870D01*
X152399501Y-107117876D01*
X152405908Y-107177483D01*
X152456202Y-107312328D01*
X152456206Y-107312335D01*
X152542452Y-107427544D01*
X152542455Y-107427547D01*
X152657664Y-107513793D01*
X152657671Y-107513797D01*
X152792517Y-107564091D01*
X152792516Y-107564091D01*
X152799444Y-107564835D01*
X152852127Y-107570500D01*
X154647872Y-107570499D01*
X154707483Y-107564091D01*
X154842331Y-107513796D01*
X154957546Y-107427546D01*
X155043796Y-107312331D01*
X155094091Y-107177483D01*
X155100500Y-107117873D01*
X155100499Y-105322128D01*
X155094091Y-105262517D01*
X155064019Y-105181891D01*
X155043797Y-105127671D01*
X155043793Y-105127664D01*
X154957547Y-105012455D01*
X154957544Y-105012452D01*
X154842335Y-104926206D01*
X154842328Y-104926202D01*
X154707482Y-104875908D01*
X154707483Y-104875908D01*
X154647883Y-104869501D01*
X154647881Y-104869500D01*
X154647873Y-104869500D01*
X154647864Y-104869500D01*
X152852129Y-104869500D01*
X152852123Y-104869501D01*
X152792516Y-104875908D01*
X152657671Y-104926202D01*
X152657664Y-104926206D01*
X152542455Y-105012452D01*
X152542452Y-105012455D01*
X152456206Y-105127664D01*
X152456202Y-105127671D01*
X152405908Y-105262517D01*
X152399501Y-105322116D01*
X152399501Y-105322123D01*
X152399500Y-105322135D01*
X152399500Y-107117870D01*
X151111317Y-107117870D01*
X151138105Y-107091082D01*
X151273600Y-106897578D01*
X151373429Y-106683492D01*
X151373432Y-106683486D01*
X151430636Y-106470000D01*
X150533686Y-106470000D01*
X150559493Y-106429844D01*
X150600000Y-106291889D01*
X150600000Y-106148111D01*
X150559493Y-106010156D01*
X150533686Y-105970000D01*
X151430636Y-105970000D01*
X151430635Y-105969999D01*
X151373432Y-105756513D01*
X151373429Y-105756507D01*
X151273600Y-105542422D01*
X151273599Y-105542420D01*
X151138113Y-105348926D01*
X151138108Y-105348920D01*
X150971078Y-105181890D01*
X150785405Y-105051879D01*
X150741780Y-104997302D01*
X150734588Y-104927804D01*
X150766110Y-104865449D01*
X150785406Y-104848730D01*
X150971401Y-104718495D01*
X151138495Y-104551401D01*
X151274035Y-104357830D01*
X151373903Y-104143663D01*
X151435063Y-103915408D01*
X151435213Y-103913688D01*
X151435490Y-103912979D01*
X151436002Y-103910080D01*
X151436584Y-103910182D01*
X151460667Y-103848622D01*
X151517258Y-103807645D01*
X151558741Y-103800500D01*
X156602690Y-103800500D01*
X156669729Y-103820185D01*
X156690371Y-103836819D01*
X157616693Y-104763140D01*
X157602590Y-104770411D01*
X157437460Y-104900271D01*
X157299890Y-105059035D01*
X157265334Y-105118886D01*
X156335312Y-104188864D01*
X156254516Y-104286530D01*
X156092707Y-104541502D01*
X156092704Y-104541508D01*
X155964127Y-104814747D01*
X155964125Y-104814752D01*
X155870805Y-105101959D01*
X155814216Y-105398609D01*
X155814215Y-105398616D01*
X155795255Y-105699994D01*
X155795255Y-105700005D01*
X155814215Y-106001383D01*
X155814216Y-106001390D01*
X155870805Y-106298040D01*
X155964125Y-106585247D01*
X155964127Y-106585252D01*
X156092704Y-106858491D01*
X156092707Y-106858497D01*
X156254513Y-107113464D01*
X156335312Y-107211133D01*
X157264211Y-106282235D01*
X157364894Y-106423624D01*
X157516932Y-106568592D01*
X157619222Y-106634329D01*
X156686564Y-107566986D01*
X156911474Y-107730393D01*
X156911478Y-107730396D01*
X156969062Y-107762053D01*
X157018326Y-107811600D01*
X157032982Y-107879915D01*
X157008378Y-107945309D01*
X156952325Y-107987020D01*
X156909256Y-107994715D01*
X148393866Y-107990067D01*
X148326838Y-107970346D01*
X148281112Y-107917517D01*
X148269934Y-107866135D01*
X148257797Y-84800000D01*
X149594540Y-84800000D01*
X149614326Y-84988256D01*
X149614327Y-84988259D01*
X149672818Y-85168277D01*
X149672821Y-85168284D01*
X149767467Y-85332216D01*
X149871934Y-85448238D01*
X149894129Y-85472888D01*
X150047265Y-85584148D01*
X150047270Y-85584151D01*
X150220192Y-85661142D01*
X150220197Y-85661144D01*
X150405354Y-85700500D01*
X150405355Y-85700500D01*
X150594644Y-85700500D01*
X150594646Y-85700500D01*
X150779803Y-85661144D01*
X150952730Y-85584151D01*
X151046481Y-85516036D01*
X151097017Y-85494386D01*
X151103646Y-85493171D01*
X151107296Y-85492616D01*
X151168872Y-85485140D01*
X151178335Y-85481550D01*
X151199961Y-85475522D01*
X151200893Y-85475351D01*
X151209932Y-85473695D01*
X151266512Y-85448229D01*
X151269942Y-85446809D01*
X151327930Y-85424818D01*
X151336266Y-85419062D01*
X151355821Y-85408034D01*
X151365057Y-85403878D01*
X151413896Y-85365613D01*
X151416876Y-85363421D01*
X151467929Y-85328183D01*
X151509065Y-85281748D01*
X151511599Y-85279056D01*
X152652339Y-84138316D01*
X152713660Y-84104833D01*
X152727855Y-84102597D01*
X152896132Y-84086024D01*
X153084727Y-84028814D01*
X153258538Y-83935910D01*
X153410883Y-83810883D01*
X153535910Y-83658538D01*
X153628814Y-83484727D01*
X153686024Y-83296132D01*
X153705341Y-83100000D01*
X153686024Y-82903868D01*
X153628814Y-82715273D01*
X153628811Y-82715269D01*
X153628811Y-82715266D01*
X153535913Y-82541467D01*
X153535909Y-82541460D01*
X153410883Y-82389116D01*
X153258539Y-82264090D01*
X153258532Y-82264086D01*
X153084733Y-82171188D01*
X153084727Y-82171186D01*
X152896132Y-82113976D01*
X152896129Y-82113975D01*
X152700000Y-82094659D01*
X152503870Y-82113975D01*
X152315266Y-82171188D01*
X152141467Y-82264086D01*
X152141460Y-82264090D01*
X151989116Y-82389116D01*
X151864090Y-82541460D01*
X151864086Y-82541467D01*
X151771188Y-82715266D01*
X151713975Y-82903870D01*
X151697403Y-83072133D01*
X151671242Y-83136921D01*
X151661681Y-83147660D01*
X150901978Y-83907363D01*
X150840655Y-83940848D01*
X150786597Y-83938149D01*
X150786160Y-83940207D01*
X150690855Y-83919949D01*
X150594646Y-83899500D01*
X150405354Y-83899500D01*
X150372897Y-83906398D01*
X150220197Y-83938855D01*
X150220192Y-83938857D01*
X150047270Y-84015848D01*
X150047265Y-84015851D01*
X149894129Y-84127111D01*
X149767466Y-84267785D01*
X149672821Y-84431715D01*
X149672818Y-84431722D01*
X149614327Y-84611740D01*
X149614326Y-84611744D01*
X149594540Y-84800000D01*
X148257797Y-84800000D01*
X148255899Y-81192076D01*
X152191476Y-81192076D01*
X152315466Y-81258350D01*
X152503969Y-81315531D01*
X152503965Y-81315531D01*
X152700000Y-81334838D01*
X152896032Y-81315531D01*
X153084537Y-81258348D01*
X153208522Y-81192076D01*
X152700001Y-80683553D01*
X152700000Y-80683553D01*
X152191476Y-81192076D01*
X148255899Y-81192076D01*
X148255445Y-80330000D01*
X151695161Y-80330000D01*
X151714468Y-80526030D01*
X151771652Y-80714538D01*
X151837922Y-80838522D01*
X152346446Y-80330000D01*
X153053553Y-80330000D01*
X153562076Y-80838522D01*
X153628348Y-80714537D01*
X153685531Y-80526032D01*
X153704838Y-80329999D01*
X153685531Y-80133967D01*
X153628350Y-79945466D01*
X153562076Y-79821476D01*
X153053553Y-80330000D01*
X152346446Y-80330000D01*
X152346446Y-80329999D01*
X151837923Y-79821475D01*
X151837922Y-79821476D01*
X151771652Y-79945461D01*
X151714468Y-80133969D01*
X151695161Y-80330000D01*
X148255445Y-80330000D01*
X148254991Y-79467922D01*
X152191476Y-79467922D01*
X152700000Y-79976446D01*
X152700001Y-79976446D01*
X153208522Y-79467922D01*
X153208522Y-79467921D01*
X153084538Y-79401652D01*
X152896030Y-79344468D01*
X152700000Y-79325161D01*
X152503969Y-79344468D01*
X152315461Y-79401652D01*
X152191476Y-79467922D01*
X148254991Y-79467922D01*
X148250065Y-70104064D01*
X148269714Y-70037015D01*
X148322494Y-69991233D01*
X148374065Y-69980000D01*
X149661110Y-69980000D01*
X149728149Y-69999685D01*
G37*
%TD.AperFunction*%
%TA.AperFunction,Conductor*%
G36*
X160401256Y-103820185D02*
G01*
X160421898Y-103836819D01*
X161394229Y-104809150D01*
X161427714Y-104870473D01*
X161424479Y-104935148D01*
X161370321Y-105101832D01*
X161370320Y-105101836D01*
X161370319Y-105101840D01*
X161343780Y-105240965D01*
X161313719Y-105398546D01*
X161313718Y-105398553D01*
X161294754Y-105699994D01*
X161294754Y-105700005D01*
X161313718Y-106001446D01*
X161313719Y-106001453D01*
X161370320Y-106298164D01*
X161463659Y-106585431D01*
X161463661Y-106585436D01*
X161592265Y-106858732D01*
X161592268Y-106858738D01*
X161754111Y-107113763D01*
X161754114Y-107113767D01*
X161754115Y-107113768D01*
X161757513Y-107117876D01*
X161946652Y-107346505D01*
X162166836Y-107553272D01*
X162166846Y-107553280D01*
X162411193Y-107730808D01*
X162411198Y-107730810D01*
X162411205Y-107730816D01*
X162468025Y-107762053D01*
X162473489Y-107765057D01*
X162522753Y-107814603D01*
X162537409Y-107882919D01*
X162512805Y-107948313D01*
X162456752Y-107990024D01*
X162413683Y-107997719D01*
X159488046Y-107996122D01*
X159421018Y-107976401D01*
X159375292Y-107923572D01*
X159365386Y-107854408D01*
X159394445Y-107790868D01*
X159428378Y-107763459D01*
X159488520Y-107730396D01*
X159488525Y-107730393D01*
X159713433Y-107566986D01*
X159713434Y-107566986D01*
X158783306Y-106636859D01*
X158797410Y-106629589D01*
X158962540Y-106499729D01*
X159100110Y-106340965D01*
X159134665Y-106281112D01*
X160064686Y-107211133D01*
X160145483Y-107113469D01*
X160307292Y-106858497D01*
X160307295Y-106858491D01*
X160435872Y-106585252D01*
X160435874Y-106585247D01*
X160529194Y-106298040D01*
X160585783Y-106001390D01*
X160585784Y-106001383D01*
X160604745Y-105700005D01*
X160604745Y-105699994D01*
X160585784Y-105398616D01*
X160585783Y-105398609D01*
X160529194Y-105101959D01*
X160435874Y-104814752D01*
X160435872Y-104814747D01*
X160307295Y-104541508D01*
X160307292Y-104541502D01*
X160145486Y-104286535D01*
X160064685Y-104188864D01*
X159135787Y-105117763D01*
X159035106Y-104976376D01*
X158883068Y-104831408D01*
X158780777Y-104765669D01*
X159709628Y-103836819D01*
X159770951Y-103803334D01*
X159797309Y-103800500D01*
X160334217Y-103800500D01*
X160401256Y-103820185D01*
G37*
%TD.AperFunction*%
%TD*%
M02*
