%TF.GenerationSoftware,KiCad,Pcbnew,7.0.6*%
%TF.CreationDate,2024-04-30T22:58:06+02:00*%
%TF.ProjectId,nboard,6e626f61-7264-42e6-9b69-6361645f7063,rev?*%
%TF.SameCoordinates,Original*%
%TF.FileFunction,Soldermask,Top*%
%TF.FilePolarity,Negative*%
%FSLAX46Y46*%
G04 Gerber Fmt 4.6, Leading zero omitted, Abs format (unit mm)*
G04 Created by KiCad (PCBNEW 7.0.6) date 2024-04-30 22:58:06*
%MOMM*%
%LPD*%
G01*
G04 APERTURE LIST*
G04 Aperture macros list*
%AMRoundRect*
0 Rectangle with rounded corners*
0 $1 Rounding radius*
0 $2 $3 $4 $5 $6 $7 $8 $9 X,Y pos of 4 corners*
0 Add a 4 corners polygon primitive as box body*
4,1,4,$2,$3,$4,$5,$6,$7,$8,$9,$2,$3,0*
0 Add four circle primitives for the rounded corners*
1,1,$1+$1,$2,$3*
1,1,$1+$1,$4,$5*
1,1,$1+$1,$6,$7*
1,1,$1+$1,$8,$9*
0 Add four rect primitives between the rounded corners*
20,1,$1+$1,$2,$3,$4,$5,0*
20,1,$1+$1,$4,$5,$6,$7,0*
20,1,$1+$1,$6,$7,$8,$9,0*
20,1,$1+$1,$8,$9,$2,$3,0*%
G04 Aperture macros list end*
%ADD10C,2.600000*%
%ADD11C,3.800000*%
%ADD12RoundRect,0.250000X-0.475000X0.250000X-0.475000X-0.250000X0.475000X-0.250000X0.475000X0.250000X0*%
%ADD13RoundRect,0.250000X-0.450000X0.262500X-0.450000X-0.262500X0.450000X-0.262500X0.450000X0.262500X0*%
%ADD14R,1.700000X1.700000*%
%ADD15O,1.700000X1.700000*%
%ADD16RoundRect,0.250000X-0.250000X-0.475000X0.250000X-0.475000X0.250000X0.475000X-0.250000X0.475000X0*%
%ADD17R,2.500000X1.000000*%
%ADD18R,1.000000X1.800000*%
%ADD19RoundRect,0.250000X0.450000X-0.262500X0.450000X0.262500X-0.450000X0.262500X-0.450000X-0.262500X0*%
%ADD20RoundRect,0.150000X0.587500X0.150000X-0.587500X0.150000X-0.587500X-0.150000X0.587500X-0.150000X0*%
%ADD21RoundRect,0.250000X0.425000X-0.450000X0.425000X0.450000X-0.425000X0.450000X-0.425000X-0.450000X0*%
%ADD22RoundRect,0.250000X0.450000X0.425000X-0.450000X0.425000X-0.450000X-0.425000X0.450000X-0.425000X0*%
%ADD23R,1.500000X2.000000*%
%ADD24R,3.800000X2.000000*%
G04 APERTURE END LIST*
D10*
%TO.C,H1*%
X163700000Y-105700000D03*
D11*
X163700000Y-105700000D03*
%TD*%
D12*
%TO.C,C3*%
X157400000Y-97850000D03*
X157400000Y-99750000D03*
%TD*%
D13*
%TO.C,R8*%
X155980000Y-88587500D03*
X155980000Y-90412500D03*
%TD*%
D14*
%TO.C,J4*%
X150100000Y-93520000D03*
D15*
X150100000Y-96060000D03*
X150100000Y-98600000D03*
X150100000Y-101140000D03*
X150100000Y-103680000D03*
X150100000Y-106220000D03*
%TD*%
D16*
%TO.C,C2*%
X163650000Y-102200000D03*
X165550000Y-102200000D03*
%TD*%
D17*
%TO.C,U1*%
X149800000Y-70750000D03*
X149800000Y-72750000D03*
X149800000Y-74750000D03*
X149800000Y-76750000D03*
X149800000Y-78750000D03*
X149800000Y-80750000D03*
X149800000Y-82750000D03*
X149800000Y-84750000D03*
D18*
X152400000Y-86250000D03*
X154400000Y-86250000D03*
X156400000Y-86250000D03*
X158400000Y-86250000D03*
X160400000Y-86250000D03*
X162400000Y-86250000D03*
D17*
X165000000Y-84750000D03*
X165000000Y-82750000D03*
X165000000Y-80750000D03*
X165000000Y-78750000D03*
X165000000Y-76750000D03*
X165000000Y-74750000D03*
X165000000Y-72750000D03*
X165000000Y-70750000D03*
%TD*%
D19*
%TO.C,R2*%
X157900000Y-90412500D03*
X157900000Y-88587500D03*
%TD*%
%TO.C,R1*%
X159800000Y-90412500D03*
X159800000Y-88587500D03*
%TD*%
D20*
%TO.C,Q1*%
X154837500Y-97750000D03*
X154837500Y-95850000D03*
X152962500Y-96800000D03*
%TD*%
D13*
%TO.C,R3*%
X161700000Y-88587500D03*
X161700000Y-90412500D03*
%TD*%
D21*
%TO.C,C4*%
X157400000Y-95350000D03*
X157400000Y-92650000D03*
%TD*%
D22*
%TO.C,C1*%
X160050000Y-102200000D03*
X157350000Y-102200000D03*
%TD*%
D13*
%TO.C,R4*%
X163600000Y-88587500D03*
X163600000Y-90412500D03*
%TD*%
%TO.C,R6*%
X154080000Y-88587500D03*
X154080000Y-90412500D03*
%TD*%
D20*
%TO.C,Q3*%
X154837500Y-101150000D03*
X154837500Y-99250000D03*
X152962500Y-100200000D03*
%TD*%
D14*
%TO.C,J1*%
X153750000Y-106220000D03*
%TD*%
D10*
%TO.C,H2*%
X158200000Y-105700000D03*
D11*
X158200000Y-105700000D03*
%TD*%
D20*
%TO.C,Q2*%
X154837500Y-94350000D03*
X154837500Y-92450000D03*
X152962500Y-93400000D03*
%TD*%
D13*
%TO.C,R7*%
X152180000Y-88587500D03*
X152180000Y-90412500D03*
%TD*%
%TO.C,R5*%
X165500000Y-88587500D03*
X165500000Y-90412500D03*
%TD*%
D23*
%TO.C,U2*%
X160400000Y-99250000D03*
X162700000Y-99250000D03*
D24*
X162700000Y-92950000D03*
D23*
X165000000Y-99250000D03*
%TD*%
D12*
%TO.C,C5*%
X149300000Y-88550000D03*
X149300000Y-90450000D03*
%TD*%
M02*
